<mxfile host="app.diagrams.net" agent="Mozilla/5.0 (X11; Ubuntu; Linux x86_64; rv:142.0) Gecko/20100101 Firefox/142.0" version="28.2.1">
  <diagram name="Page-1" id="YA-uAFHWchK7glYAIztM">
    <mxGraphModel dx="656" dy="383" grid="0" gridSize="10" guides="1" tooltips="1" connect="1" arrows="1" fold="1" page="1" pageScale="1" pageWidth="850" pageHeight="1100" math="0" shadow="0">
      <root>
        <mxCell id="0" />
        <mxCell id="1" parent="0" />
        <mxCell id="i7MlMyAg6a_LaQY61Rji-63" value="" style="shape=stencil(lVjbUlsxDPyavGpsyxf5mbb/wQyhZEoJE+jt7ys39eFYztnAW3qqxdZttdaOb14ebp/3u+BeXk/Hb/tfh7vXhx1/2oVweHrYnw6v+mvHn3d8c3887b+ejj+e7s7/fr5tlu3X9+PP9hd+n3GeSmyg4P6cP3ChWv59+XK2fzw8reyZwmQf0rZ9olxG+0RRtu0LSRjtHWVg7x1FHgDBkQsAECiOHlRKDthHSnWw17+P7DOJtfcV2Fcqo8cZOhwChTGiesOSASCRdzZCEaQ4CLkxQnolFNKWotFljWkEV+JAIhbgQRVp0fwvsgUgFBGgEGcLcB4AKlUTpQILNQbiYAGOAUB9cDasBVRGXDpxfSWQh+RtqarTBfiQEnGyeaggcUkojz5o7hnUUvY9iGsAcDpH8tECAvAh515qKwDKdJYprLW37GVK8pSnKAniMKYyARI6IZP3FoA6rmj1T5lmABBtUXNC6QV/GaAtyhaQQMfJXN7aDyBKUiibEzDzVXeBlxhcqWqLGprhXl2XAdFWq9cogcRVJfsxrDpeIECdjhbgQAPVhedWdA9PWJh0cdpDMlaAHdEO8lJdOKIDlAtRxzXAGNbEVFEedCaOpZGVqTDAyJKS8JWE0uiDeHyl0ofsAlAhAxpIS6MGC0DzQQGG+bRpBZVGsiSgxMMo03qBsTQydzGx1Q8yAnTEwBaN1mmdq2gC1UuDXVAe0tRxS3VthTWZjotQa9RJOvgrpSFd4C0A7mNyC1DH8vb6BV1Jx8ekNZASqNWKUBbIfN4tqnZp6gofAu2IMa466zOmDaPUS+j1uBUmGa9UKqY+6Q22dFCkjBriw4DYaWh5PDB8/lSVZGaiOPx+kGr1TCNoPEfdBGBANM1H44T0tt3SAq5aAFLfpVp93yKNFFOxQlS7EA2tMinXxreA8LXWzMNSAShKxXV6XwE8uFLW0T6dEEBYdaaZoaUAVBp59iFRQerb2aefAlCPpmKF6BvfXgZwf0qufEAnKKvkqZY8cDrm6YSKAWwVU1MH6EreDt7GPOj5KnZpogA0eDlbqavljd5ZHKc8aIeg52uYMn1ljaAjxYQ1kQf90CaO8cHB0R4iJUOuCe8dVKeOThe8RtCpaTSZNi2a1D71G68EEGI+HeQxTCeg7Y+zmVZdyYi9+/JpsRfIAdM+rS4nvm9fJ7i2p32gXBEOdgui4yiCQnVW+rR3I7iPs/NT4ynAX0dsNEPpXzbsTd/oax9JsUkm5Qwn22zv4Ctguk+KcOpM/kaBhD3FM0a4XpnyFV1/E7yvHhpZoob54P75ur3+eFt23x8eH8+78vX/2+W4fjov1vnzXw==);lineShape=1;strokeColor=#001DBC;hachureGap=4;fontFamily=Architects Daughter;fontSource=https%3A%2F%2Ffonts.googleapis.com%2Fcss%3Ffamily%3DArchitects%2BDaughter;fillColor=#0050ef;fontColor=#ffffff;" vertex="1" parent="1">
          <mxGeometry x="129.11973863783658" y="154.85728257152675" width="42.43353616800273" height="2.968104412325297" as="geometry" />
        </mxCell>
        <mxCell id="i7MlMyAg6a_LaQY61Rji-64" value="" style="shape=stencil(lVfbchoxDP2afdVYlq/PafofmQkpO6WQIfT299V2Zwm22AO8LebIlo6kY3mQp4/ty/tm8O7jdDx83/weX0/bQb4M3o/77eY4nvRrkOdBnt4Ox8234+Hn/nX+/f4yIaevH4df0w5/ZrtEvkxG3v2dF5ip+P8rX2f8btxf4FlIXGvgqOZ1A88koTEoVCLAV0rS4BMFWcdLIecbfCAH9g+Zam3wngKv42OhkNuAlw2u4pP6Uzt8AITmRCk1eEc5reMrU5YO7xzAB5LcxZuAPzVRbvOlCfbogEKxLaGJoQAMKmVuDCQtOb9ec+4c4mIR/bLH2hGhLQpNS0QGmrWuSv3C2xpNnUvVU0FRy+LA2UAbAURd3fL32aDCoEsh38ZQI0kBBhpDe4KuCEh1CRTaoLPA5ikadGwTp0Qjl4xB0GJ6yCXViwgSZ4NWSUugoSdaO5dwA5m8af+A/W1hMPFDlZeJkWCY0uZMCfdn1zzCFEEOrvSnqqzg/uwkIOm9gkgyIpM1LMxSJ2OlUkEuGZ2sGbukQtzSdMHDndJ9y8JeDsqcB7mzt88nc3deb1O9AJ7s/ak8RcCTvaBVlupDE8DUIg+NGMo0gxPsEKPF4YAWmylJRYEBq4FyS2rJsFrFzEhCBdSF77OccZZ5Of2MZ6h5ru8Fbc8Iys7ez6qRwH+rF3GR8fv80YkhAM0z8erQifTI8HljaDP54kQM+DT1wJ7qI/V2Yyq/jdePzyfA27jbzS+Iy//7J4Muzc8Nef4H);lineShape=1;strokeColor=#001DBC;hachureGap=4;fontFamily=Architects Daughter;fontSource=https%3A%2F%2Ffonts.googleapis.com%2Fcss%3Ffamily%3DArchitects%2BDaughter;fillColor=#0050ef;fontColor=#ffffff;" vertex="1" parent="1">
          <mxGeometry x="179.2677504975029" y="171.44643500383881" width="11.657046085045879" height="1.9320066806167078" as="geometry" />
        </mxCell>
        <mxCell id="i7MlMyAg6a_LaQY61Rji-65" value="" style="shape=stencil(lVnbchshDP0av2oAcRHPafsfmYnTeJrGGSe9/X1FXexF7B5P3pK1zgLicHTE7vju7en+db8L7u39dPy2/3V4eH/a8addCIeXp/3p8K5/7fjzju8ej6f919Pxx8vD+f/X+xbZ/vp+/Nne8PuM8xRqAwX35/wgOZL078mXc/zz4WURz+TCEB8r+bwdn8iP74+OYtiOLxTTEB8qFRBfqbox3pPwdrwP5EaAzyRgAM9UeAQkCiBD+nMdl+AdHkEolAHAJBHE1/66y5op++14zUiqJv7/pqzH64q9jS8gPpMze0aM4oVyMfFoy1g5KiY/aD7M9v1MAeSHE2Wbn4qOQKGcTXwA+8uVsqFcf7AaH/3EOPIgP1HpMq7XUQFHMibLH0csIL5QSibeoflXcuN+xf5gXSJcp2+PrzCfKXQFucZnkJ8UiacD6RAgEzsLYDQjsSdAARGkKKmoyQQAZz57y1EfKQJSZ7aHRmWDAauzqppRUqzUOVP1FoCEMUun5WJKSBjLpRQtAAUwqbBlnk4pgX0outNmDQEDhLzJEkPyFZ2xETulIwBImNQownIgqavDAoBKpuh5ngAJFITqyKePjFDX1lAAW6v+HD+SpSq2pnGAXKpqU0bR4AxVVQFG9WLodXoLICO9r8K2Xseds14ku1tD1HEIPSIBcEMBZVyE8jGCE6QAHvOqbHEor2JVQDffoTVINwcXQCSPuFFsudIRKgbwCBCBBbeqkhmAyi1Ka7YOowRYchVg6JpDL9qbI4xKlhjWrLYGQ9dIAU1JszRySX1NRFMqlt9qtJBv0J2OIzU4wIrSuDSugWMXki22GiegXqveOA/jxqm5gTut7xsBag4qyNLaoc791G7qxqh9WpUSqKNNmUb9lojZNxkyVXQox2K1r2pPgDZC7KIVkNGUVgGIfVOFkAS7mLkGaZYELXqqcg0AZGOuowqoqLRPlfrWCGtryMgATfy+kaXZzyhAEGByTDcKxOzJpGLA5PoUUJA3nnxlA4C0tgPpLAA6V02iIZ9ALqn7TsVmCYmA+ntT5IQhl+YOoghsCOYepQHQzc3UBSkggX2Y+ywFIHq3Rs6MUDsdtzrF4O0IyGxEsWwtHnZyMdsp5QIvA2KcKnuB6q0uMkYLQEc0OrsPyl8k9yydzAsAvADJtowq4SOYEk9irAC0D63wmyypVAIha/d6YkeAl1DF7rQCUGW/dlULAKrs7ZYt2LSiRbdrmHkEfLFnLksVgGTGl+7+LwDBLUeiZM4Dvntrt5/G6XI3y1v3qyFYAOrZ29WK6WkydAIylemARaM7l4vT8FDs2b5fvQoyS94enoUF3ACYktsMHViws0qvTryAPbtceSwaLNTeO3tTpE4I3RS53q4tLEOA8zGfDEqFCjkZaGVQBpTT+JFAKqio7Dh70ZVxW+JsG5Nuvd80h1oYA4y3LYbH9/8f/GRzO17/uH4fejw8P58/Ly1/t9+T9NH5WxR//gs=);lineShape=1;strokeColor=#001DBC;hachureGap=4;fontFamily=Architects Daughter;fontSource=https%3A%2F%2Ffonts.googleapis.com%2Fcss%3Ffamily%3DArchitects%2BDaughter;fillColor=#0050ef;fontColor=#ffffff;" vertex="1" parent="1">
          <mxGeometry x="200.57059568832597" y="153.78641375893824" width="55.31538114442995" height="3.062235348866279" as="geometry" />
        </mxCell>
        <mxCell id="i7MlMyAg6a_LaQY61Rji-68" value="" style="shape=stencil(rVfZbttADPwavxK73JPPafofAeI0Rl07cJIef1+q7qomJU1RoG+2xNHyGA65u3T3+vzwst9xeH27nD/vvx0e35536cOO+XB63l8Ob/prl+536e7pfNl/upzfT4/X/y8Pk+X068v56/SF71dcjBTLhOLw4/cTivnXg49X++PhdGvfqHRjXyiGbXvOJNl+P1LhbUAqFIIFZKppG5AThWQBnbhsA4p+z7rETAXEXGWEOAMqSd0G9EDSDCAFauAEUQfEAhJlcEIMwacpR6oAIW24PBcuUAVp6kIlWkChHAFAmWMBNUJAYxIH0BMAN2qiavPaAnUBpS6eG62QAEDW12wAnSkhugol61Lvo5brgEBsTxAtNeA3J2JLVy1lawAQfEuLwBNipWrZd0OvdcTSJ4GVi+pTXQQB2De/ne1VZ0DQldiGIHEIzzozFnXukKuaIit7PcPv69ecvfqDMrrQ4SZUESBTtgLQOiUEaMOBG0AEIesk4OpdCkBiVOtdkTVoCNCqueZJsJ+VFsmltQ0nNwH2BFHFAESdXHLE06g6DtpKjDIb9c6UVgfoUJO0cN31jkDuKTV80ALHz0Q+9i6hdu5jOM32FVKpjtF0o3kBdPOyO3Ez1MH82b7C76u6OBoxdZSgMDgwA8Kg7v8BaEqjFbA6T5b1OdJ9K0zTFsSQu5dUnY4RDc/mq1ZmFV+vQqHmdpIKu7PlsXfdLDENTCoV3W5j0PmbATEmEbWALGM3WwcEH3RuQ5nXs6RMcycwNRC0hui6M+FmS+xnT4pjcdqSJAdgGXvQOlu136wk6ScKED0ZK/y8MKhGgTKksUPN9mksl+sOkdgAIg+2r9qHxSVDn4CiBT93BC55i11bL0Ggwov9q8Dk6NXAJicPNd7IjSMow+sR+9LinVy3Cut7wFcjP/wCHPjKkubNQWbE3zUDlMR/vsv+1V5//Lk4Px2Ox+u9+/a9v2jro+slPd3/BA==);lineShape=1;strokeColor=#001DBC;hachureGap=4;fontFamily=Architects Daughter;fontSource=https%3A%2F%2Ffonts.googleapis.com%2Fcss%3Ffamily%3DArchitects%2BDaughter;fillColor=#0050ef;fontColor=#ffffff;" vertex="1" parent="1">
          <mxGeometry x="162.4780127230643" y="151.99544451326068" width="10.073620304192907" height="9.916898373787987" as="geometry" />
        </mxCell>
        <mxCell id="i7MlMyAg6a_LaQY61Rji-69" value="" style="shape=stencil(rVfZbttADPwavxK73JPPafofAeI0Rl07cJIef1+q7qomJU1RoG+2xNHyGA65u3T3+vzwst9xeH27nD/vvx0e35536cOO+XB63l8Ob/prl+536e7pfNl/upzfT4/X/y8Pk+X068v56/SF71dcjBTLhOLw4/cTivnXg49X++PhdGvfqHRjXyiGbXvOJNl+P1LhbUAqFIIFZKppG5AThWQBnbhsA4p+z7rETAXEXGWEOAMqSd0G9EDSDCAFauAEUQfEAhJlcEIMwacpR6oAIW24PBcuUAVp6kIlWkChHAFAmWMBNUJAYxIH0BMAN2qiavPaAnUBpS6eG62QAEDW12wAnSkhugol61Lvo5brgEBsTxAtNeA3J2JLVy1lawAQfEuLwBNipWrZd0OvdcTSJ4GVi+pTXQQB2De/ne1VZ0DQldiGIHEIzzozFnXukKuaIit7PcPv69ecvfqDMrrQ4SZUESBTtgLQOiUEaMOBG0AEIesk4OpdCkBiVOtdkTVoCNCqueZJsJ+VFsmltQ0nNwH2BFHFAESdXHLE06g6DtpKjDIb9c6UVgfoUJO0cN31jkDuKTV80ALHz0Q+9i6hdu5jOM32FVKpjtF0o3kBdPOyO3Ez1MH82b7C76u6OBoxdZSgMDgwA8Kg7v8BaEqjFbA6T5b1OdJ9K0zTFsSQu5dUnY4RDc/mq1ZmFV+vQqHmdpIKu7PlsXfdLDENTCoV3W5j0PmbATEmEbWALGM3WwcEH3RuQ5nXs6RMcycwNRC0hui6M+FmS+xnT4pjcdqSJAdgGXvQOlu136wk6ScKED0ZK/y8MKhGgTKksUPN9mksl+sOkdgAIg+2r9qHxSVDn4CiBT93BC55i11bL0Ggwov9q8Dk6NXAJicPNd7IjSMow+sR+9LinVy3Cut7wFcjP/wCHPjKkubNQWbE3zUDlMR/vsv+1V5//Lk4Px2Ox+u9+/a9v2jro+slPd3/BA==);lineShape=1;strokeColor=#001DBC;hachureGap=4;fontFamily=Architects Daughter;fontSource=https%3A%2F%2Ffonts.googleapis.com%2Fcss%3Ffamily%3DArchitects%2BDaughter;fillColor=#0050ef;fontColor=#ffffff;" vertex="1" parent="1">
          <mxGeometry x="184.84801272306427" y="167.35544451326066" width="10.073620304192907" height="9.916898373787987" as="geometry" />
        </mxCell>
        <mxCell id="i7MlMyAg6a_LaQY61Rji-70" value="" style="shape=stencil(rVfZbttADPwavxK73JPPafofAeI0Rl07cJIef1+q7qomJU1RoG+2xNHyGA65u3T3+vzwst9xeH27nD/vvx0e35536cOO+XB63l8Ob/prl+536e7pfNl/upzfT4/X/y8Pk+X068v56/SF71dcjBTLhOLw4/cTivnXg49X++PhdGvfqHRjXyiGbXvOJNl+P1LhbUAqFIIFZKppG5AThWQBnbhsA4p+z7rETAXEXGWEOAMqSd0G9EDSDCAFauAEUQfEAhJlcEIMwacpR6oAIW24PBcuUAVp6kIlWkChHAFAmWMBNUJAYxIH0BMAN2qiavPaAnUBpS6eG62QAEDW12wAnSkhugol61Lvo5brgEBsTxAtNeA3J2JLVy1lawAQfEuLwBNipWrZd0OvdcTSJ4GVi+pTXQQB2De/ne1VZ0DQldiGIHEIzzozFnXukKuaIit7PcPv69ecvfqDMrrQ4SZUESBTtgLQOiUEaMOBG0AEIesk4OpdCkBiVOtdkTVoCNCqueZJsJ+VFsmltQ0nNwH2BFHFAESdXHLE06g6DtpKjDIb9c6UVgfoUJO0cN31jkDuKTV80ALHz0Q+9i6hdu5jOM32FVKpjtF0o3kBdPOyO3Ez1MH82b7C76u6OBoxdZSgMDgwA8Kg7v8BaEqjFbA6T5b1OdJ9K0zTFsSQu5dUnY4RDc/mq1ZmFV+vQqHmdpIKu7PlsXfdLDENTCoV3W5j0PmbATEmEbWALGM3WwcEH3RuQ5nXs6RMcycwNRC0hui6M+FmS+xnT4pjcdqSJAdgGXvQOlu136wk6ScKED0ZK/y8MKhGgTKksUPN9mksl+sOkdgAIg+2r9qHxSVDn4CiBT93BC55i11bL0Ggwov9q8Dk6NXAJicPNd7IjSMow+sR+9LinVy3Cut7wFcjP/wCHPjKkubNQWbE3zUDlMR/vsv+1V5//Lk4Px2Ox+u9+/a9v2jro+slPd3/BA==);lineShape=1;strokeColor=#001DBC;hachureGap=4;fontFamily=Architects Daughter;fontSource=https%3A%2F%2Ffonts.googleapis.com%2Fcss%3Ffamily%3DArchitects%2BDaughter;fillColor=#0050ef;fontColor=#ffffff;" vertex="1" parent="1">
          <mxGeometry x="250.7980127230643" y="150.35544451326066" width="10.073620304192907" height="9.916898373787987" as="geometry" />
        </mxCell>
        <mxCell id="i7MlMyAg6a_LaQY61Rji-71" value="" style="shape=stencil(lVjbUlsxDPyavGpsyxf5mbb/wQyhZEoJE+jt7ys39eFYztnAW3qqxdZttdaOb14ebp/3u+BeXk/Hb/tfh7vXhx1/2oVweHrYnw6v+mvHn3d8c3887b+ejj+e7s7/fr5tlu3X9+PP9hd+n3GeSmyg4P6cP3ChWv59+XK2fzw8reyZwmQf0rZ9olxG+0RRtu0LSRjtHWVg7x1FHgDBkQsAECiOHlRKDthHSnWw17+P7DOJtfcV2Fcqo8cZOhwChTGiesOSASCRdzZCEaQ4CLkxQnolFNKWotFljWkEV+JAIhbgQRVp0fwvsgUgFBGgEGcLcB4AKlUTpQILNQbiYAGOAUB9cDasBVRGXDpxfSWQh+RtqarTBfiQEnGyeaggcUkojz5o7hnUUvY9iGsAcDpH8tECAvAh515qKwDKdJYprLW37GVK8pSnKAniMKYyARI6IZP3FoA6rmj1T5lmABBtUXNC6QV/GaAtyhaQQMfJXN7aDyBKUiibEzDzVXeBlxhcqWqLGprhXl2XAdFWq9cogcRVJfsxrDpeIECdjhbgQAPVhedWdA9PWJh0cdpDMlaAHdEO8lJdOKIDlAtRxzXAGNbEVFEedCaOpZGVqTDAyJKS8JWE0uiDeHyl0ofsAlAhAxpIS6MGC0DzQQGG+bRpBZVGsiSgxMMo03qBsTQydzGx1Q8yAnTEwBaN1mmdq2gC1UuDXVAe0tRxS3VthTWZjotQa9RJOvgrpSFd4C0A7mNyC1DH8vb6BV1Jx8ekNZASqNWKUBbIfN4tqnZp6gofAu2IMa466zOmDaPUS+j1uBUmGa9UKqY+6Q22dFCkjBriw4DYaWh5PDB8/lSVZGaiOPx+kGr1TCNoPEfdBGBANM1H44T0tt3SAq5aAFLfpVp93yKNFFOxQlS7EA2tMinXxreA8LXWzMNSAShKxXV6XwE8uFLW0T6dEEBYdaaZoaUAVBp59iFRQerb2aefAlCPpmKF6BvfXgZwf0qufEAnKKvkqZY8cDrm6YSKAWwVU1MH6EreDt7GPOj5KnZpogA0eDlbqavljd5ZHKc8aIeg52uYMn1ljaAjxYQ1kQf90CaO8cHB0R4iJUOuCe8dVKeOThe8RtCpaTSZNi2a1D71G68EEGI+HeQxTCeg7Y+zmVZdyYi9+/JpsRfIAdM+rS4nvm9fJ7i2p32gXBEOdgui4yiCQnVW+rR3I7iPs/NT4ynAX0dsNEPpXzbsTd/oax9JsUkm5Qwn22zv4Ctguk+KcOpM/kaBhD3FM0a4XpnyFV1/E7yvHhpZoob54P75ur3+eFt23x8eH8+78vX/2+W4fjov1vnzXw==);lineShape=1;strokeColor=#B20000;hachureGap=4;fontFamily=Architects Daughter;fontSource=https%3A%2F%2Ffonts.googleapis.com%2Fcss%3Ffamily%3DArchitects%2BDaughter;fillColor=#e51400;fontColor=#ffffff;" vertex="1" parent="1">
          <mxGeometry x="129.12" y="187.5018380582661" width="42.43353616800273" height="2.968104412325297" as="geometry" />
        </mxCell>
        <mxCell id="i7MlMyAg6a_LaQY61Rji-72" value="" style="shape=stencil(lVfbchoxDP2afdVYlq/PafofmQkpO6WQIfT299V2Zwm22AO8LebIlo6kY3mQp4/ty/tm8O7jdDx83/weX0/bQb4M3o/77eY4nvRrkOdBnt4Ox8234+Hn/nX+/f4yIaevH4df0w5/ZrtEvkxG3v2dF5ip+P8rX2f8btxf4FlIXGvgqOZ1A88koTEoVCLAV0rS4BMFWcdLIecbfCAH9g+Zam3wngKv42OhkNuAlw2u4pP6Uzt8AITmRCk1eEc5reMrU5YO7xzAB5LcxZuAPzVRbvOlCfbogEKxLaGJoQAMKmVuDCQtOb9ec+4c4mIR/bLH2hGhLQpNS0QGmrWuSv3C2xpNnUvVU0FRy+LA2UAbAURd3fL32aDCoEsh38ZQI0kBBhpDe4KuCEh1CRTaoLPA5ikadGwTp0Qjl4xB0GJ6yCXViwgSZ4NWSUugoSdaO5dwA5m8af+A/W1hMPFDlZeJkWCY0uZMCfdn1zzCFEEOrvSnqqzg/uwkIOm9gkgyIpM1LMxSJ2OlUkEuGZ2sGbukQtzSdMHDndJ9y8JeDsqcB7mzt88nc3deb1O9AJ7s/ak8RcCTvaBVlupDE8DUIg+NGMo0gxPsEKPF4YAWmylJRYEBq4FyS2rJsFrFzEhCBdSF77OccZZ5Of2MZ6h5ru8Fbc8Iys7ez6qRwH+rF3GR8fv80YkhAM0z8erQifTI8HljaDP54kQM+DT1wJ7qI/V2Yyq/jdePzyfA27jbzS+Iy//7J4Muzc8Nef4H);lineShape=1;strokeColor=#B20000;hachureGap=4;fontFamily=Architects Daughter;fontSource=https%3A%2F%2Ffonts.googleapis.com%2Fcss%3Ffamily%3DArchitects%2BDaughter;fillColor=#e51400;fontColor=#ffffff;" vertex="1" parent="1">
          <mxGeometry x="201.26801185966633" y="171.09099049057815" width="11.657046085045879" height="1.9320066806167078" as="geometry" />
        </mxCell>
        <mxCell id="i7MlMyAg6a_LaQY61Rji-73" value="" style="shape=stencil(lVnbchshDP0av2oAcRHPafsfmYnTeJrGGSe9/X1FXexF7B5P3pK1zgLicHTE7vju7en+db8L7u39dPy2/3V4eH/a8addCIeXp/3p8K5/7fjzju8ej6f919Pxx8vD+f/X+xbZ/vp+/Nne8PuM8xRqAwX35/wgOZL078mXc/zz4WURz+TCEB8r+bwdn8iP74+OYtiOLxTTEB8qFRBfqbox3pPwdrwP5EaAzyRgAM9UeAQkCiBD+nMdl+AdHkEolAHAJBHE1/66y5op++14zUiqJv7/pqzH64q9jS8gPpMze0aM4oVyMfFoy1g5KiY/aD7M9v1MAeSHE2Wbn4qOQKGcTXwA+8uVsqFcf7AaH/3EOPIgP1HpMq7XUQFHMibLH0csIL5QSibeoflXcuN+xf5gXSJcp2+PrzCfKXQFucZnkJ8UiacD6RAgEzsLYDQjsSdAARGkKKmoyQQAZz57y1EfKQJSZ7aHRmWDAauzqppRUqzUOVP1FoCEMUun5WJKSBjLpRQtAAUwqbBlnk4pgX0outNmDQEDhLzJEkPyFZ2xETulIwBImNQownIgqavDAoBKpuh5ngAJFITqyKePjFDX1lAAW6v+HD+SpSq2pnGAXKpqU0bR4AxVVQFG9WLodXoLICO9r8K2Xseds14ku1tD1HEIPSIBcEMBZVyE8jGCE6QAHvOqbHEor2JVQDffoTVINwcXQCSPuFFsudIRKgbwCBCBBbeqkhmAyi1Ka7YOowRYchVg6JpDL9qbI4xKlhjWrLYGQ9dIAU1JszRySX1NRFMqlt9qtJBv0J2OIzU4wIrSuDSugWMXki22GiegXqveOA/jxqm5gTut7xsBag4qyNLaoc791G7qxqh9WpUSqKNNmUb9lojZNxkyVXQox2K1r2pPgDZC7KIVkNGUVgGIfVOFkAS7mLkGaZYELXqqcg0AZGOuowqoqLRPlfrWCGtryMgATfy+kaXZzyhAEGByTDcKxOzJpGLA5PoUUJA3nnxlA4C0tgPpLAA6V02iIZ9ALqn7TsVmCYmA+ntT5IQhl+YOoghsCOYepQHQzc3UBSkggX2Y+ywFIHq3Rs6MUDsdtzrF4O0IyGxEsWwtHnZyMdsp5QIvA2KcKnuB6q0uMkYLQEc0OrsPyl8k9yydzAsAvADJtowq4SOYEk9irAC0D63wmyypVAIha/d6YkeAl1DF7rQCUGW/dlULAKrs7ZYt2LSiRbdrmHkEfLFnLksVgGTGl+7+LwDBLUeiZM4Dvntrt5/G6XI3y1v3qyFYAOrZ29WK6WkydAIylemARaM7l4vT8FDs2b5fvQoyS94enoUF3ACYktsMHViws0qvTryAPbtceSwaLNTeO3tTpE4I3RS53q4tLEOA8zGfDEqFCjkZaGVQBpTT+JFAKqio7Dh70ZVxW+JsG5Nuvd80h1oYA4y3LYbH9/8f/GRzO17/uH4fejw8P58/Ly1/t9+T9NH5WxR//gs=);lineShape=1;strokeColor=#B20000;hachureGap=4;fontFamily=Architects Daughter;fontSource=https%3A%2F%2Ffonts.googleapis.com%2Fcss%3Ffamily%3DArchitects%2BDaughter;fillColor=#e51400;fontColor=#ffffff;" vertex="1" parent="1">
          <mxGeometry x="218.5708570504894" y="186.43096924567757" width="55.31538114442995" height="3.062235348866279" as="geometry" />
        </mxCell>
        <mxCell id="i7MlMyAg6a_LaQY61Rji-74" value="" style="shape=stencil(rVfZbttADPwavxK73JPPafofAeI0Rl07cJIef1+q7qomJU1RoG+2xNHyGA65u3T3+vzwst9xeH27nD/vvx0e35536cOO+XB63l8Ob/prl+536e7pfNl/upzfT4/X/y8Pk+X068v56/SF71dcjBTLhOLw4/cTivnXg49X++PhdGvfqHRjXyiGbXvOJNl+P1LhbUAqFIIFZKppG5AThWQBnbhsA4p+z7rETAXEXGWEOAMqSd0G9EDSDCAFauAEUQfEAhJlcEIMwacpR6oAIW24PBcuUAVp6kIlWkChHAFAmWMBNUJAYxIH0BMAN2qiavPaAnUBpS6eG62QAEDW12wAnSkhugol61Lvo5brgEBsTxAtNeA3J2JLVy1lawAQfEuLwBNipWrZd0OvdcTSJ4GVi+pTXQQB2De/ne1VZ0DQldiGIHEIzzozFnXukKuaIit7PcPv69ecvfqDMrrQ4SZUESBTtgLQOiUEaMOBG0AEIesk4OpdCkBiVOtdkTVoCNCqueZJsJ+VFsmltQ0nNwH2BFHFAESdXHLE06g6DtpKjDIb9c6UVgfoUJO0cN31jkDuKTV80ALHz0Q+9i6hdu5jOM32FVKpjtF0o3kBdPOyO3Ez1MH82b7C76u6OBoxdZSgMDgwA8Kg7v8BaEqjFbA6T5b1OdJ9K0zTFsSQu5dUnY4RDc/mq1ZmFV+vQqHmdpIKu7PlsXfdLDENTCoV3W5j0PmbATEmEbWALGM3WwcEH3RuQ5nXs6RMcycwNRC0hui6M+FmS+xnT4pjcdqSJAdgGXvQOlu136wk6ScKED0ZK/y8MKhGgTKksUPN9mksl+sOkdgAIg+2r9qHxSVDn4CiBT93BC55i11bL0Ggwov9q8Dk6NXAJicPNd7IjSMow+sR+9LinVy3Cut7wFcjP/wCHPjKkubNQWbE3zUDlMR/vsv+1V5//Lk4Px2Ox+u9+/a9v2jro+slPd3/BA==);lineShape=1;strokeColor=#B20000;hachureGap=4;fontFamily=Architects Daughter;fontSource=https%3A%2F%2Ffonts.googleapis.com%2Fcss%3Ffamily%3DArchitects%2BDaughter;fillColor=#e51400;fontColor=#ffffff;" vertex="1" parent="1">
          <mxGeometry x="162.47827408522772" y="184.64000000000001" width="10.073620304192907" height="9.916898373787987" as="geometry" />
        </mxCell>
        <mxCell id="i7MlMyAg6a_LaQY61Rji-75" value="" style="shape=stencil(rVfZbttADPwavxK73JPPafofAeI0Rl07cJIef1+q7qomJU1RoG+2xNHyGA65u3T3+vzwst9xeH27nD/vvx0e35536cOO+XB63l8Ob/prl+536e7pfNl/upzfT4/X/y8Pk+X068v56/SF71dcjBTLhOLw4/cTivnXg49X++PhdGvfqHRjXyiGbXvOJNl+P1LhbUAqFIIFZKppG5AThWQBnbhsA4p+z7rETAXEXGWEOAMqSd0G9EDSDCAFauAEUQfEAhJlcEIMwacpR6oAIW24PBcuUAVp6kIlWkChHAFAmWMBNUJAYxIH0BMAN2qiavPaAnUBpS6eG62QAEDW12wAnSkhugol61Lvo5brgEBsTxAtNeA3J2JLVy1lawAQfEuLwBNipWrZd0OvdcTSJ4GVi+pTXQQB2De/ne1VZ0DQldiGIHEIzzozFnXukKuaIit7PcPv69ecvfqDMrrQ4SZUESBTtgLQOiUEaMOBG0AEIesk4OpdCkBiVOtdkTVoCNCqueZJsJ+VFsmltQ0nNwH2BFHFAESdXHLE06g6DtpKjDIb9c6UVgfoUJO0cN31jkDuKTV80ALHz0Q+9i6hdu5jOM32FVKpjtF0o3kBdPOyO3Ez1MH82b7C76u6OBoxdZSgMDgwA8Kg7v8BaEqjFbA6T5b1OdJ9K0zTFsSQu5dUnY4RDc/mq1ZmFV+vQqHmdpIKu7PlsXfdLDENTCoV3W5j0PmbATEmEbWALGM3WwcEH3RuQ5nXs6RMcycwNRC0hui6M+FmS+xnT4pjcdqSJAdgGXvQOlu136wk6ScKED0ZK/y8MKhGgTKksUPN9mksl+sOkdgAIg+2r9qHxSVDn4CiBT93BC55i11bL0Ggwov9q8Dk6NXAJicPNd7IjSMow+sR+9LinVy3Cut7wFcjP/wCHPjKkubNQWbE3zUDlMR/vsv+1V5//Lk4Px2Ox+u9+/a9v2jro+slPd3/BA==);lineShape=1;strokeColor=#B20000;hachureGap=4;fontFamily=Architects Daughter;fontSource=https%3A%2F%2Ffonts.googleapis.com%2Fcss%3Ffamily%3DArchitects%2BDaughter;fillColor=#e51400;fontColor=#ffffff;" vertex="1" parent="1">
          <mxGeometry x="206.84827408522767" y="167" width="10.073620304192907" height="9.916898373787987" as="geometry" />
        </mxCell>
        <mxCell id="i7MlMyAg6a_LaQY61Rji-76" value="" style="shape=stencil(rVfZbttADPwavxK73JPPafofAeI0Rl07cJIef1+q7qomJU1RoG+2xNHyGA65u3T3+vzwst9xeH27nD/vvx0e35536cOO+XB63l8Ob/prl+536e7pfNl/upzfT4/X/y8Pk+X068v56/SF71dcjBTLhOLw4/cTivnXg49X++PhdGvfqHRjXyiGbXvOJNl+P1LhbUAqFIIFZKppG5AThWQBnbhsA4p+z7rETAXEXGWEOAMqSd0G9EDSDCAFauAEUQfEAhJlcEIMwacpR6oAIW24PBcuUAVp6kIlWkChHAFAmWMBNUJAYxIH0BMAN2qiavPaAnUBpS6eG62QAEDW12wAnSkhugol61Lvo5brgEBsTxAtNeA3J2JLVy1lawAQfEuLwBNipWrZd0OvdcTSJ4GVi+pTXQQB2De/ne1VZ0DQldiGIHEIzzozFnXukKuaIit7PcPv69ecvfqDMrrQ4SZUESBTtgLQOiUEaMOBG0AEIesk4OpdCkBiVOtdkTVoCNCqueZJsJ+VFsmltQ0nNwH2BFHFAESdXHLE06g6DtpKjDIb9c6UVgfoUJO0cN31jkDuKTV80ALHz0Q+9i6hdu5jOM32FVKpjtF0o3kBdPOyO3Ez1MH82b7C76u6OBoxdZSgMDgwA8Kg7v8BaEqjFbA6T5b1OdJ9K0zTFsSQu5dUnY4RDc/mq1ZmFV+vQqHmdpIKu7PlsXfdLDENTCoV3W5j0PmbATEmEbWALGM3WwcEH3RuQ5nXs6RMcycwNRC0hui6M+FmS+xnT4pjcdqSJAdgGXvQOlu136wk6ScKED0ZK/y8MKhGgTKksUPN9mksl+sOkdgAIg+2r9qHxSVDn4CiBT93BC55i11bL0Ggwov9q8Dk6NXAJicPNd7IjSMow+sR+9LinVy3Cut7wFcjP/wCHPjKkubNQWbE3zUDlMR/vsv+1V5//Lk4Px2Ox+u9+/a9v2jro+slPd3/BA==);lineShape=1;strokeColor=#B20000;hachureGap=4;fontFamily=Architects Daughter;fontSource=https%3A%2F%2Ffonts.googleapis.com%2Fcss%3Ffamily%3DArchitects%2BDaughter;fillColor=#e51400;fontColor=#ffffff;" vertex="1" parent="1">
          <mxGeometry x="268.7982740852277" y="183" width="10.073620304192907" height="9.916898373787987" as="geometry" />
        </mxCell>
        <mxCell id="i7MlMyAg6a_LaQY61Rji-77" value="" style="shape=stencil(lVjbUlsxDPyavGpsyxf5mbb/wQyhZEoJE+jt7ys39eFYztnAW3qqxdZttdaOb14ebp/3u+BeXk/Hb/tfh7vXhx1/2oVweHrYnw6v+mvHn3d8c3887b+ejj+e7s7/fr5tlu3X9+PP9hd+n3GeSmyg4P6cP3ChWv59+XK2fzw8reyZwmQf0rZ9olxG+0RRtu0LSRjtHWVg7x1FHgDBkQsAECiOHlRKDthHSnWw17+P7DOJtfcV2Fcqo8cZOhwChTGiesOSASCRdzZCEaQ4CLkxQnolFNKWotFljWkEV+JAIhbgQRVp0fwvsgUgFBGgEGcLcB4AKlUTpQILNQbiYAGOAUB9cDasBVRGXDpxfSWQh+RtqarTBfiQEnGyeaggcUkojz5o7hnUUvY9iGsAcDpH8tECAvAh515qKwDKdJYprLW37GVK8pSnKAniMKYyARI6IZP3FoA6rmj1T5lmABBtUXNC6QV/GaAtyhaQQMfJXN7aDyBKUiibEzDzVXeBlxhcqWqLGprhXl2XAdFWq9cogcRVJfsxrDpeIECdjhbgQAPVhedWdA9PWJh0cdpDMlaAHdEO8lJdOKIDlAtRxzXAGNbEVFEedCaOpZGVqTDAyJKS8JWE0uiDeHyl0ofsAlAhAxpIS6MGC0DzQQGG+bRpBZVGsiSgxMMo03qBsTQydzGx1Q8yAnTEwBaN1mmdq2gC1UuDXVAe0tRxS3VthTWZjotQa9RJOvgrpSFd4C0A7mNyC1DH8vb6BV1Jx8ekNZASqNWKUBbIfN4tqnZp6gofAu2IMa466zOmDaPUS+j1uBUmGa9UKqY+6Q22dFCkjBriw4DYaWh5PDB8/lSVZGaiOPx+kGr1TCNoPEfdBGBANM1H44T0tt3SAq5aAFLfpVp93yKNFFOxQlS7EA2tMinXxreA8LXWzMNSAShKxXV6XwE8uFLW0T6dEEBYdaaZoaUAVBp59iFRQerb2aefAlCPpmKF6BvfXgZwf0qufEAnKKvkqZY8cDrm6YSKAWwVU1MH6EreDt7GPOj5KnZpogA0eDlbqavljd5ZHKc8aIeg52uYMn1ljaAjxYQ1kQf90CaO8cHB0R4iJUOuCe8dVKeOThe8RtCpaTSZNi2a1D71G68EEGI+HeQxTCeg7Y+zmVZdyYi9+/JpsRfIAdM+rS4nvm9fJ7i2p32gXBEOdgui4yiCQnVW+rR3I7iPs/NT4ynAX0dsNEPpXzbsTd/oax9JsUkm5Qwn22zv4Ctguk+KcOpM/kaBhD3FM0a4XpnyFV1/E7yvHhpZoob54P75ur3+eFt23x8eH8+78vX/2+W4fjov1vnzXw==);lineShape=1;strokeColor=#001DBC;hachureGap=4;fontFamily=Architects Daughter;fontSource=https%3A%2F%2Ffonts.googleapis.com%2Fcss%3Ffamily%3DArchitects%2BDaughter;fillColor=#0050ef;fontColor=#ffffff;" vertex="1" parent="1">
          <mxGeometry x="129.11973863783658" y="264.49728257152674" width="42.43353616800273" height="2.968104412325297" as="geometry" />
        </mxCell>
        <mxCell id="i7MlMyAg6a_LaQY61Rji-78" value="" style="shape=stencil(lVfbchoxDP2afdVYlq/PafofmQkpO6WQIfT299V2Zwm22AO8LebIlo6kY3mQp4/ty/tm8O7jdDx83/weX0/bQb4M3o/77eY4nvRrkOdBnt4Ox8234+Hn/nX+/f4yIaevH4df0w5/ZrtEvkxG3v2dF5ip+P8rX2f8btxf4FlIXGvgqOZ1A88koTEoVCLAV0rS4BMFWcdLIecbfCAH9g+Zam3wngKv42OhkNuAlw2u4pP6Uzt8AITmRCk1eEc5reMrU5YO7xzAB5LcxZuAPzVRbvOlCfbogEKxLaGJoQAMKmVuDCQtOb9ec+4c4mIR/bLH2hGhLQpNS0QGmrWuSv3C2xpNnUvVU0FRy+LA2UAbAURd3fL32aDCoEsh38ZQI0kBBhpDe4KuCEh1CRTaoLPA5ikadGwTp0Qjl4xB0GJ6yCXViwgSZ4NWSUugoSdaO5dwA5m8af+A/W1hMPFDlZeJkWCY0uZMCfdn1zzCFEEOrvSnqqzg/uwkIOm9gkgyIpM1LMxSJ2OlUkEuGZ2sGbukQtzSdMHDndJ9y8JeDsqcB7mzt88nc3deb1O9AJ7s/ak8RcCTvaBVlupDE8DUIg+NGMo0gxPsEKPF4YAWmylJRYEBq4FyS2rJsFrFzEhCBdSF77OccZZ5Of2MZ6h5ru8Fbc8Iys7ez6qRwH+rF3GR8fv80YkhAM0z8erQifTI8HljaDP54kQM+DT1wJ7qI/V2Yyq/jdePzyfA27jbzS+Iy//7J4Muzc8Nef4H);lineShape=1;strokeColor=#001DBC;hachureGap=4;fontFamily=Architects Daughter;fontSource=https%3A%2F%2Ffonts.googleapis.com%2Fcss%3Ffamily%3DArchitects%2BDaughter;fillColor=#0050ef;fontColor=#ffffff;" vertex="1" parent="1">
          <mxGeometry x="179.2677504975029" y="282.0864350038388" width="11.657046085045879" height="1.9320066806167078" as="geometry" />
        </mxCell>
        <mxCell id="i7MlMyAg6a_LaQY61Rji-79" value="" style="shape=stencil(lVnbchshDP0av2oAcRHPafsfmYnTeJrGGSe9/X1FXexF7B5P3pK1zgLicHTE7vju7en+db8L7u39dPy2/3V4eH/a8addCIeXp/3p8K5/7fjzju8ej6f919Pxx8vD+f/X+xbZ/vp+/Nne8PuM8xRqAwX35/wgOZL078mXc/zz4WURz+TCEB8r+bwdn8iP74+OYtiOLxTTEB8qFRBfqbox3pPwdrwP5EaAzyRgAM9UeAQkCiBD+nMdl+AdHkEolAHAJBHE1/66y5op++14zUiqJv7/pqzH64q9jS8gPpMze0aM4oVyMfFoy1g5KiY/aD7M9v1MAeSHE2Wbn4qOQKGcTXwA+8uVsqFcf7AaH/3EOPIgP1HpMq7XUQFHMibLH0csIL5QSibeoflXcuN+xf5gXSJcp2+PrzCfKXQFucZnkJ8UiacD6RAgEzsLYDQjsSdAARGkKKmoyQQAZz57y1EfKQJSZ7aHRmWDAauzqppRUqzUOVP1FoCEMUun5WJKSBjLpRQtAAUwqbBlnk4pgX0outNmDQEDhLzJEkPyFZ2xETulIwBImNQownIgqavDAoBKpuh5ngAJFITqyKePjFDX1lAAW6v+HD+SpSq2pnGAXKpqU0bR4AxVVQFG9WLodXoLICO9r8K2Xseds14ku1tD1HEIPSIBcEMBZVyE8jGCE6QAHvOqbHEor2JVQDffoTVINwcXQCSPuFFsudIRKgbwCBCBBbeqkhmAyi1Ka7YOowRYchVg6JpDL9qbI4xKlhjWrLYGQ9dIAU1JszRySX1NRFMqlt9qtJBv0J2OIzU4wIrSuDSugWMXki22GiegXqveOA/jxqm5gTut7xsBag4qyNLaoc791G7qxqh9WpUSqKNNmUb9lojZNxkyVXQox2K1r2pPgDZC7KIVkNGUVgGIfVOFkAS7mLkGaZYELXqqcg0AZGOuowqoqLRPlfrWCGtryMgATfy+kaXZzyhAEGByTDcKxOzJpGLA5PoUUJA3nnxlA4C0tgPpLAA6V02iIZ9ALqn7TsVmCYmA+ntT5IQhl+YOoghsCOYepQHQzc3UBSkggX2Y+ywFIHq3Rs6MUDsdtzrF4O0IyGxEsWwtHnZyMdsp5QIvA2KcKnuB6q0uMkYLQEc0OrsPyl8k9yydzAsAvADJtowq4SOYEk9irAC0D63wmyypVAIha/d6YkeAl1DF7rQCUGW/dlULAKrs7ZYt2LSiRbdrmHkEfLFnLksVgGTGl+7+LwDBLUeiZM4Dvntrt5/G6XI3y1v3qyFYAOrZ29WK6WkydAIylemARaM7l4vT8FDs2b5fvQoyS94enoUF3ACYktsMHViws0qvTryAPbtceSwaLNTeO3tTpE4I3RS53q4tLEOA8zGfDEqFCjkZaGVQBpTT+JFAKqio7Dh70ZVxW+JsG5Nuvd80h1oYA4y3LYbH9/8f/GRzO17/uH4fejw8P58/Ly1/t9+T9NH5WxR//gs=);lineShape=1;strokeColor=#001DBC;hachureGap=4;fontFamily=Architects Daughter;fontSource=https%3A%2F%2Ffonts.googleapis.com%2Fcss%3Ffamily%3DArchitects%2BDaughter;fillColor=#0050ef;fontColor=#ffffff;" vertex="1" parent="1">
          <mxGeometry x="200.57059568832597" y="263.4264137589382" width="55.31538114442995" height="3.062235348866279" as="geometry" />
        </mxCell>
        <mxCell id="i7MlMyAg6a_LaQY61Rji-80" value="" style="shape=stencil(rVfZbttADPwavxK73JPPafofAeI0Rl07cJIef1+q7qomJU1RoG+2xNHyGA65u3T3+vzwst9xeH27nD/vvx0e35536cOO+XB63l8Ob/prl+536e7pfNl/upzfT4/X/y8Pk+X068v56/SF71dcjBTLhOLw4/cTivnXg49X++PhdGvfqHRjXyiGbXvOJNl+P1LhbUAqFIIFZKppG5AThWQBnbhsA4p+z7rETAXEXGWEOAMqSd0G9EDSDCAFauAEUQfEAhJlcEIMwacpR6oAIW24PBcuUAVp6kIlWkChHAFAmWMBNUJAYxIH0BMAN2qiavPaAnUBpS6eG62QAEDW12wAnSkhugol61Lvo5brgEBsTxAtNeA3J2JLVy1lawAQfEuLwBNipWrZd0OvdcTSJ4GVi+pTXQQB2De/ne1VZ0DQldiGIHEIzzozFnXukKuaIit7PcPv69ecvfqDMrrQ4SZUESBTtgLQOiUEaMOBG0AEIesk4OpdCkBiVOtdkTVoCNCqueZJsJ+VFsmltQ0nNwH2BFHFAESdXHLE06g6DtpKjDIb9c6UVgfoUJO0cN31jkDuKTV80ALHz0Q+9i6hdu5jOM32FVKpjtF0o3kBdPOyO3Ez1MH82b7C76u6OBoxdZSgMDgwA8Kg7v8BaEqjFbA6T5b1OdJ9K0zTFsSQu5dUnY4RDc/mq1ZmFV+vQqHmdpIKu7PlsXfdLDENTCoV3W5j0PmbATEmEbWALGM3WwcEH3RuQ5nXs6RMcycwNRC0hui6M+FmS+xnT4pjcdqSJAdgGXvQOlu136wk6ScKED0ZK/y8MKhGgTKksUPN9mksl+sOkdgAIg+2r9qHxSVDn4CiBT93BC55i11bL0Ggwov9q8Dk6NXAJicPNd7IjSMow+sR+9LinVy3Cut7wFcjP/wCHPjKkubNQWbE3zUDlMR/vsv+1V5//Lk4Px2Ox+u9+/a9v2jro+slPd3/BA==);lineShape=1;strokeColor=#001DBC;hachureGap=4;fontFamily=Architects Daughter;fontSource=https%3A%2F%2Ffonts.googleapis.com%2Fcss%3Ffamily%3DArchitects%2BDaughter;fillColor=#0050ef;fontColor=#ffffff;" vertex="1" parent="1">
          <mxGeometry x="162.4780127230643" y="261.63544451326067" width="10.073620304192907" height="9.916898373787987" as="geometry" />
        </mxCell>
        <mxCell id="i7MlMyAg6a_LaQY61Rji-81" value="" style="shape=stencil(rVfZbttADPwavxK73JPPafofAeI0Rl07cJIef1+q7qomJU1RoG+2xNHyGA65u3T3+vzwst9xeH27nD/vvx0e35536cOO+XB63l8Ob/prl+536e7pfNl/upzfT4/X/y8Pk+X068v56/SF71dcjBTLhOLw4/cTivnXg49X++PhdGvfqHRjXyiGbXvOJNl+P1LhbUAqFIIFZKppG5AThWQBnbhsA4p+z7rETAXEXGWEOAMqSd0G9EDSDCAFauAEUQfEAhJlcEIMwacpR6oAIW24PBcuUAVp6kIlWkChHAFAmWMBNUJAYxIH0BMAN2qiavPaAnUBpS6eG62QAEDW12wAnSkhugol61Lvo5brgEBsTxAtNeA3J2JLVy1lawAQfEuLwBNipWrZd0OvdcTSJ4GVi+pTXQQB2De/ne1VZ0DQldiGIHEIzzozFnXukKuaIit7PcPv69ecvfqDMrrQ4SZUESBTtgLQOiUEaMOBG0AEIesk4OpdCkBiVOtdkTVoCNCqueZJsJ+VFsmltQ0nNwH2BFHFAESdXHLE06g6DtpKjDIb9c6UVgfoUJO0cN31jkDuKTV80ALHz0Q+9i6hdu5jOM32FVKpjtF0o3kBdPOyO3Ez1MH82b7C76u6OBoxdZSgMDgwA8Kg7v8BaEqjFbA6T5b1OdJ9K0zTFsSQu5dUnY4RDc/mq1ZmFV+vQqHmdpIKu7PlsXfdLDENTCoV3W5j0PmbATEmEbWALGM3WwcEH3RuQ5nXs6RMcycwNRC0hui6M+FmS+xnT4pjcdqSJAdgGXvQOlu136wk6ScKED0ZK/y8MKhGgTKksUPN9mksl+sOkdgAIg+2r9qHxSVDn4CiBT93BC55i11bL0Ggwov9q8Dk6NXAJicPNd7IjSMow+sR+9LinVy3Cut7wFcjP/wCHPjKkubNQWbE3zUDlMR/vsv+1V5//Lk4Px2Ox+u9+/a9v2jro+slPd3/BA==);lineShape=1;strokeColor=#001DBC;hachureGap=4;fontFamily=Architects Daughter;fontSource=https%3A%2F%2Ffonts.googleapis.com%2Fcss%3Ffamily%3DArchitects%2BDaughter;fillColor=#0050ef;fontColor=#ffffff;" vertex="1" parent="1">
          <mxGeometry x="184.84801272306427" y="277.9954445132607" width="10.073620304192907" height="9.916898373787987" as="geometry" />
        </mxCell>
        <mxCell id="i7MlMyAg6a_LaQY61Rji-82" value="" style="shape=stencil(rVfZbttADPwavxK73JPPafofAeI0Rl07cJIef1+q7qomJU1RoG+2xNHyGA65u3T3+vzwst9xeH27nD/vvx0e35536cOO+XB63l8Ob/prl+536e7pfNl/upzfT4/X/y8Pk+X068v56/SF71dcjBTLhOLw4/cTivnXg49X++PhdGvfqHRjXyiGbXvOJNl+P1LhbUAqFIIFZKppG5AThWQBnbhsA4p+z7rETAXEXGWEOAMqSd0G9EDSDCAFauAEUQfEAhJlcEIMwacpR6oAIW24PBcuUAVp6kIlWkChHAFAmWMBNUJAYxIH0BMAN2qiavPaAnUBpS6eG62QAEDW12wAnSkhugol61Lvo5brgEBsTxAtNeA3J2JLVy1lawAQfEuLwBNipWrZd0OvdcTSJ4GVi+pTXQQB2De/ne1VZ0DQldiGIHEIzzozFnXukKuaIit7PcPv69ecvfqDMrrQ4SZUESBTtgLQOiUEaMOBG0AEIesk4OpdCkBiVOtdkTVoCNCqueZJsJ+VFsmltQ0nNwH2BFHFAESdXHLE06g6DtpKjDIb9c6UVgfoUJO0cN31jkDuKTV80ALHz0Q+9i6hdu5jOM32FVKpjtF0o3kBdPOyO3Ez1MH82b7C76u6OBoxdZSgMDgwA8Kg7v8BaEqjFbA6T5b1OdJ9K0zTFsSQu5dUnY4RDc/mq1ZmFV+vQqHmdpIKu7PlsXfdLDENTCoV3W5j0PmbATEmEbWALGM3WwcEH3RuQ5nXs6RMcycwNRC0hui6M+FmS+xnT4pjcdqSJAdgGXvQOlu136wk6ScKED0ZK/y8MKhGgTKksUPN9mksl+sOkdgAIg+2r9qHxSVDn4CiBT93BC55i11bL0Ggwov9q8Dk6NXAJicPNd7IjSMow+sR+9LinVy3Cut7wFcjP/wCHPjKkubNQWbE3zUDlMR/vsv+1V5//Lk4Px2Ox+u9+/a9v2jro+slPd3/BA==);lineShape=1;strokeColor=#001DBC;hachureGap=4;fontFamily=Architects Daughter;fontSource=https%3A%2F%2Ffonts.googleapis.com%2Fcss%3Ffamily%3DArchitects%2BDaughter;fillColor=#0050ef;fontColor=#ffffff;" vertex="1" parent="1">
          <mxGeometry x="250.7980127230643" y="259.9954445132607" width="10.073620304192907" height="9.916898373787987" as="geometry" />
        </mxCell>
        <mxCell id="i7MlMyAg6a_LaQY61Rji-83" value="" style="shape=stencil(lVjbUlsxDPyavGpsyxf5mbb/wQyhZEoJE+jt7ys39eFYztnAW3qqxdZttdaOb14ebp/3u+BeXk/Hb/tfh7vXhx1/2oVweHrYnw6v+mvHn3d8c3887b+ejj+e7s7/fr5tlu3X9+PP9hd+n3GeSmyg4P6cP3ChWv59+XK2fzw8reyZwmQf0rZ9olxG+0RRtu0LSRjtHWVg7x1FHgDBkQsAECiOHlRKDthHSnWw17+P7DOJtfcV2Fcqo8cZOhwChTGiesOSASCRdzZCEaQ4CLkxQnolFNKWotFljWkEV+JAIhbgQRVp0fwvsgUgFBGgEGcLcB4AKlUTpQILNQbiYAGOAUB9cDasBVRGXDpxfSWQh+RtqarTBfiQEnGyeaggcUkojz5o7hnUUvY9iGsAcDpH8tECAvAh515qKwDKdJYprLW37GVK8pSnKAniMKYyARI6IZP3FoA6rmj1T5lmABBtUXNC6QV/GaAtyhaQQMfJXN7aDyBKUiibEzDzVXeBlxhcqWqLGprhXl2XAdFWq9cogcRVJfsxrDpeIECdjhbgQAPVhedWdA9PWJh0cdpDMlaAHdEO8lJdOKIDlAtRxzXAGNbEVFEedCaOpZGVqTDAyJKS8JWE0uiDeHyl0ofsAlAhAxpIS6MGC0DzQQGG+bRpBZVGsiSgxMMo03qBsTQydzGx1Q8yAnTEwBaN1mmdq2gC1UuDXVAe0tRxS3VthTWZjotQa9RJOvgrpSFd4C0A7mNyC1DH8vb6BV1Jx8ekNZASqNWKUBbIfN4tqnZp6gofAu2IMa466zOmDaPUS+j1uBUmGa9UKqY+6Q22dFCkjBriw4DYaWh5PDB8/lSVZGaiOPx+kGr1TCNoPEfdBGBANM1H44T0tt3SAq5aAFLfpVp93yKNFFOxQlS7EA2tMinXxreA8LXWzMNSAShKxXV6XwE8uFLW0T6dEEBYdaaZoaUAVBp59iFRQerb2aefAlCPpmKF6BvfXgZwf0qufEAnKKvkqZY8cDrm6YSKAWwVU1MH6EreDt7GPOj5KnZpogA0eDlbqavljd5ZHKc8aIeg52uYMn1ljaAjxYQ1kQf90CaO8cHB0R4iJUOuCe8dVKeOThe8RtCpaTSZNi2a1D71G68EEGI+HeQxTCeg7Y+zmVZdyYi9+/JpsRfIAdM+rS4nvm9fJ7i2p32gXBEOdgui4yiCQnVW+rR3I7iPs/NT4ynAX0dsNEPpXzbsTd/oax9JsUkm5Qwn22zv4Ctguk+KcOpM/kaBhD3FM0a4XpnyFV1/E7yvHhpZoob54P75ur3+eFt23x8eH8+78vX/2+W4fjov1vnzXw==);lineShape=1;strokeColor=#B20000;hachureGap=4;fontFamily=Architects Daughter;fontSource=https%3A%2F%2Ffonts.googleapis.com%2Fcss%3Ffamily%3DArchitects%2BDaughter;fillColor=#e51400;fontColor=#ffffff;" vertex="1" parent="1">
          <mxGeometry x="129.12" y="297.1418380582661" width="42.43353616800273" height="2.968104412325297" as="geometry" />
        </mxCell>
        <mxCell id="i7MlMyAg6a_LaQY61Rji-84" value="" style="shape=stencil(lVfbchoxDP2afdVYlq/PafofmQkpO6WQIfT299V2Zwm22AO8LebIlo6kY3mQp4/ty/tm8O7jdDx83/weX0/bQb4M3o/77eY4nvRrkOdBnt4Ox8234+Hn/nX+/f4yIaevH4df0w5/ZrtEvkxG3v2dF5ip+P8rX2f8btxf4FlIXGvgqOZ1A88koTEoVCLAV0rS4BMFWcdLIecbfCAH9g+Zam3wngKv42OhkNuAlw2u4pP6Uzt8AITmRCk1eEc5reMrU5YO7xzAB5LcxZuAPzVRbvOlCfbogEKxLaGJoQAMKmVuDCQtOb9ec+4c4mIR/bLH2hGhLQpNS0QGmrWuSv3C2xpNnUvVU0FRy+LA2UAbAURd3fL32aDCoEsh38ZQI0kBBhpDe4KuCEh1CRTaoLPA5ikadGwTp0Qjl4xB0GJ6yCXViwgSZ4NWSUugoSdaO5dwA5m8af+A/W1hMPFDlZeJkWCY0uZMCfdn1zzCFEEOrvSnqqzg/uwkIOm9gkgyIpM1LMxSJ2OlUkEuGZ2sGbukQtzSdMHDndJ9y8JeDsqcB7mzt88nc3deb1O9AJ7s/ak8RcCTvaBVlupDE8DUIg+NGMo0gxPsEKPF4YAWmylJRYEBq4FyS2rJsFrFzEhCBdSF77OccZZ5Of2MZ6h5ru8Fbc8Iys7ez6qRwH+rF3GR8fv80YkhAM0z8erQifTI8HljaDP54kQM+DT1wJ7qI/V2Yyq/jdePzyfA27jbzS+Iy//7J4Muzc8Nef4H);lineShape=1;strokeColor=#B20000;hachureGap=4;fontFamily=Architects Daughter;fontSource=https%3A%2F%2Ffonts.googleapis.com%2Fcss%3Ffamily%3DArchitects%2BDaughter;fillColor=#e51400;fontColor=#ffffff;" vertex="1" parent="1">
          <mxGeometry x="201.26801185966633" y="281.73099049057817" width="11.657046085045879" height="1.9320066806167078" as="geometry" />
        </mxCell>
        <mxCell id="i7MlMyAg6a_LaQY61Rji-85" value="" style="shape=stencil(lVnbchshDP0av2oAcRHPafsfmYnTeJrGGSe9/X1FXexF7B5P3pK1zgLicHTE7vju7en+db8L7u39dPy2/3V4eH/a8addCIeXp/3p8K5/7fjzju8ej6f919Pxx8vD+f/X+xbZ/vp+/Nne8PuM8xRqAwX35/wgOZL078mXc/zz4WURz+TCEB8r+bwdn8iP74+OYtiOLxTTEB8qFRBfqbox3pPwdrwP5EaAzyRgAM9UeAQkCiBD+nMdl+AdHkEolAHAJBHE1/66y5op++14zUiqJv7/pqzH64q9jS8gPpMze0aM4oVyMfFoy1g5KiY/aD7M9v1MAeSHE2Wbn4qOQKGcTXwA+8uVsqFcf7AaH/3EOPIgP1HpMq7XUQFHMibLH0csIL5QSibeoflXcuN+xf5gXSJcp2+PrzCfKXQFucZnkJ8UiacD6RAgEzsLYDQjsSdAARGkKKmoyQQAZz57y1EfKQJSZ7aHRmWDAauzqppRUqzUOVP1FoCEMUun5WJKSBjLpRQtAAUwqbBlnk4pgX0outNmDQEDhLzJEkPyFZ2xETulIwBImNQownIgqavDAoBKpuh5ngAJFITqyKePjFDX1lAAW6v+HD+SpSq2pnGAXKpqU0bR4AxVVQFG9WLodXoLICO9r8K2Xseds14ku1tD1HEIPSIBcEMBZVyE8jGCE6QAHvOqbHEor2JVQDffoTVINwcXQCSPuFFsudIRKgbwCBCBBbeqkhmAyi1Ka7YOowRYchVg6JpDL9qbI4xKlhjWrLYGQ9dIAU1JszRySX1NRFMqlt9qtJBv0J2OIzU4wIrSuDSugWMXki22GiegXqveOA/jxqm5gTut7xsBag4qyNLaoc791G7qxqh9WpUSqKNNmUb9lojZNxkyVXQox2K1r2pPgDZC7KIVkNGUVgGIfVOFkAS7mLkGaZYELXqqcg0AZGOuowqoqLRPlfrWCGtryMgATfy+kaXZzyhAEGByTDcKxOzJpGLA5PoUUJA3nnxlA4C0tgPpLAA6V02iIZ9ALqn7TsVmCYmA+ntT5IQhl+YOoghsCOYepQHQzc3UBSkggX2Y+ywFIHq3Rs6MUDsdtzrF4O0IyGxEsWwtHnZyMdsp5QIvA2KcKnuB6q0uMkYLQEc0OrsPyl8k9yydzAsAvADJtowq4SOYEk9irAC0D63wmyypVAIha/d6YkeAl1DF7rQCUGW/dlULAKrs7ZYt2LSiRbdrmHkEfLFnLksVgGTGl+7+LwDBLUeiZM4Dvntrt5/G6XI3y1v3qyFYAOrZ29WK6WkydAIylemARaM7l4vT8FDs2b5fvQoyS94enoUF3ACYktsMHViws0qvTryAPbtceSwaLNTeO3tTpE4I3RS53q4tLEOA8zGfDEqFCjkZaGVQBpTT+JFAKqio7Dh70ZVxW+JsG5Nuvd80h1oYA4y3LYbH9/8f/GRzO17/uH4fejw8P58/Ly1/t9+T9NH5WxR//gs=);lineShape=1;strokeColor=#B20000;hachureGap=4;fontFamily=Architects Daughter;fontSource=https%3A%2F%2Ffonts.googleapis.com%2Fcss%3Ffamily%3DArchitects%2BDaughter;fillColor=#e51400;fontColor=#ffffff;" vertex="1" parent="1">
          <mxGeometry x="301.5108570504894" y="296.1009692456776" width="55.31538114442995" height="3.062235348866279" as="geometry" />
        </mxCell>
        <mxCell id="i7MlMyAg6a_LaQY61Rji-86" value="" style="shape=stencil(rVfZbttADPwavxK73JPPafofAeI0Rl07cJIef1+q7qomJU1RoG+2xNHyGA65u3T3+vzwst9xeH27nD/vvx0e35536cOO+XB63l8Ob/prl+536e7pfNl/upzfT4/X/y8Pk+X068v56/SF71dcjBTLhOLw4/cTivnXg49X++PhdGvfqHRjXyiGbXvOJNl+P1LhbUAqFIIFZKppG5AThWQBnbhsA4p+z7rETAXEXGWEOAMqSd0G9EDSDCAFauAEUQfEAhJlcEIMwacpR6oAIW24PBcuUAVp6kIlWkChHAFAmWMBNUJAYxIH0BMAN2qiavPaAnUBpS6eG62QAEDW12wAnSkhugol61Lvo5brgEBsTxAtNeA3J2JLVy1lawAQfEuLwBNipWrZd0OvdcTSJ4GVi+pTXQQB2De/ne1VZ0DQldiGIHEIzzozFnXukKuaIit7PcPv69ecvfqDMrrQ4SZUESBTtgLQOiUEaMOBG0AEIesk4OpdCkBiVOtdkTVoCNCqueZJsJ+VFsmltQ0nNwH2BFHFAESdXHLE06g6DtpKjDIb9c6UVgfoUJO0cN31jkDuKTV80ALHz0Q+9i6hdu5jOM32FVKpjtF0o3kBdPOyO3Ez1MH82b7C76u6OBoxdZSgMDgwA8Kg7v8BaEqjFbA6T5b1OdJ9K0zTFsSQu5dUnY4RDc/mq1ZmFV+vQqHmdpIKu7PlsXfdLDENTCoV3W5j0PmbATEmEbWALGM3WwcEH3RuQ5nXs6RMcycwNRC0hui6M+FmS+xnT4pjcdqSJAdgGXvQOlu136wk6ScKED0ZK/y8MKhGgTKksUPN9mksl+sOkdgAIg+2r9qHxSVDn4CiBT93BC55i11bL0Ggwov9q8Dk6NXAJicPNd7IjSMow+sR+9LinVy3Cut7wFcjP/wCHPjKkubNQWbE3zUDlMR/vsv+1V5//Lk4Px2Ox+u9+/a9v2jro+slPd3/BA==);lineShape=1;strokeColor=#B20000;hachureGap=4;fontFamily=Architects Daughter;fontSource=https%3A%2F%2Ffonts.googleapis.com%2Fcss%3Ffamily%3DArchitects%2BDaughter;fillColor=#e51400;fontColor=#ffffff;" vertex="1" parent="1">
          <mxGeometry x="162.47827408522772" y="294.28000000000003" width="10.073620304192907" height="9.916898373787987" as="geometry" />
        </mxCell>
        <mxCell id="i7MlMyAg6a_LaQY61Rji-87" value="" style="shape=stencil(rVfZbttADPwavxK73JPPafofAeI0Rl07cJIef1+q7qomJU1RoG+2xNHyGA65u3T3+vzwst9xeH27nD/vvx0e35536cOO+XB63l8Ob/prl+536e7pfNl/upzfT4/X/y8Pk+X068v56/SF71dcjBTLhOLw4/cTivnXg49X++PhdGvfqHRjXyiGbXvOJNl+P1LhbUAqFIIFZKppG5AThWQBnbhsA4p+z7rETAXEXGWEOAMqSd0G9EDSDCAFauAEUQfEAhJlcEIMwacpR6oAIW24PBcuUAVp6kIlWkChHAFAmWMBNUJAYxIH0BMAN2qiavPaAnUBpS6eG62QAEDW12wAnSkhugol61Lvo5brgEBsTxAtNeA3J2JLVy1lawAQfEuLwBNipWrZd0OvdcTSJ4GVi+pTXQQB2De/ne1VZ0DQldiGIHEIzzozFnXukKuaIit7PcPv69ecvfqDMrrQ4SZUESBTtgLQOiUEaMOBG0AEIesk4OpdCkBiVOtdkTVoCNCqueZJsJ+VFsmltQ0nNwH2BFHFAESdXHLE06g6DtpKjDIb9c6UVgfoUJO0cN31jkDuKTV80ALHz0Q+9i6hdu5jOM32FVKpjtF0o3kBdPOyO3Ez1MH82b7C76u6OBoxdZSgMDgwA8Kg7v8BaEqjFbA6T5b1OdJ9K0zTFsSQu5dUnY4RDc/mq1ZmFV+vQqHmdpIKu7PlsXfdLDENTCoV3W5j0PmbATEmEbWALGM3WwcEH3RuQ5nXs6RMcycwNRC0hui6M+FmS+xnT4pjcdqSJAdgGXvQOlu136wk6ScKED0ZK/y8MKhGgTKksUPN9mksl+sOkdgAIg+2r9qHxSVDn4CiBT93BC55i11bL0Ggwov9q8Dk6NXAJicPNd7IjSMow+sR+9LinVy3Cut7wFcjP/wCHPjKkubNQWbE3zUDlMR/vsv+1V5//Lk4Px2Ox+u9+/a9v2jro+slPd3/BA==);lineShape=1;strokeColor=#B20000;hachureGap=4;fontFamily=Architects Daughter;fontSource=https%3A%2F%2Ffonts.googleapis.com%2Fcss%3Ffamily%3DArchitects%2BDaughter;fillColor=#e51400;fontColor=#ffffff;" vertex="1" parent="1">
          <mxGeometry x="206.84827408522767" y="277.64" width="10.073620304192907" height="9.916898373787987" as="geometry" />
        </mxCell>
        <mxCell id="i7MlMyAg6a_LaQY61Rji-88" value="" style="shape=stencil(rVfZbttADPwavxK73JPPafofAeI0Rl07cJIef1+q7qomJU1RoG+2xNHyGA65u3T3+vzwst9xeH27nD/vvx0e35536cOO+XB63l8Ob/prl+536e7pfNl/upzfT4/X/y8Pk+X068v56/SF71dcjBTLhOLw4/cTivnXg49X++PhdGvfqHRjXyiGbXvOJNl+P1LhbUAqFIIFZKppG5AThWQBnbhsA4p+z7rETAXEXGWEOAMqSd0G9EDSDCAFauAEUQfEAhJlcEIMwacpR6oAIW24PBcuUAVp6kIlWkChHAFAmWMBNUJAYxIH0BMAN2qiavPaAnUBpS6eG62QAEDW12wAnSkhugol61Lvo5brgEBsTxAtNeA3J2JLVy1lawAQfEuLwBNipWrZd0OvdcTSJ4GVi+pTXQQB2De/ne1VZ0DQldiGIHEIzzozFnXukKuaIit7PcPv69ecvfqDMrrQ4SZUESBTtgLQOiUEaMOBG0AEIesk4OpdCkBiVOtdkTVoCNCqueZJsJ+VFsmltQ0nNwH2BFHFAESdXHLE06g6DtpKjDIb9c6UVgfoUJO0cN31jkDuKTV80ALHz0Q+9i6hdu5jOM32FVKpjtF0o3kBdPOyO3Ez1MH82b7C76u6OBoxdZSgMDgwA8Kg7v8BaEqjFbA6T5b1OdJ9K0zTFsSQu5dUnY4RDc/mq1ZmFV+vQqHmdpIKu7PlsXfdLDENTCoV3W5j0PmbATEmEbWALGM3WwcEH3RuQ5nXs6RMcycwNRC0hui6M+FmS+xnT4pjcdqSJAdgGXvQOlu136wk6ScKED0ZK/y8MKhGgTKksUPN9mksl+sOkdgAIg+2r9qHxSVDn4CiBT93BC55i11bL0Ggwov9q8Dk6NXAJicPNd7IjSMow+sR+9LinVy3Cut7wFcjP/wCHPjKkubNQWbE3zUDlMR/vsv+1V5//Lk4Px2Ox+u9+/a9v2jro+slPd3/BA==);lineShape=1;strokeColor=#B20000;hachureGap=4;fontFamily=Architects Daughter;fontSource=https%3A%2F%2Ffonts.googleapis.com%2Fcss%3Ffamily%3DArchitects%2BDaughter;fillColor=#e51400;fontColor=#ffffff;" vertex="1" parent="1">
          <mxGeometry x="351.7382740852277" y="292.67" width="10.073620304192907" height="9.916898373787987" as="geometry" />
        </mxCell>
        <mxCell id="i7MlMyAg6a_LaQY61Rji-89" value="" style="shape=stencil(lVfbchoxDP2afdVYlq/PafofmQkpO6WQIfT299V2Zwm22AO8LebIlo6kY3mQp4/ty/tm8O7jdDx83/weX0/bQb4M3o/77eY4nvRrkOdBnt4Ox8234+Hn/nX+/f4yIaevH4df0w5/ZrtEvkxG3v2dF5ip+P8rX2f8btxf4FlIXGvgqOZ1A88koTEoVCLAV0rS4BMFWcdLIecbfCAH9g+Zam3wngKv42OhkNuAlw2u4pP6Uzt8AITmRCk1eEc5reMrU5YO7xzAB5LcxZuAPzVRbvOlCfbogEKxLaGJoQAMKmVuDCQtOb9ec+4c4mIR/bLH2hGhLQpNS0QGmrWuSv3C2xpNnUvVU0FRy+LA2UAbAURd3fL32aDCoEsh38ZQI0kBBhpDe4KuCEh1CRTaoLPA5ikadGwTp0Qjl4xB0GJ6yCXViwgSZ4NWSUugoSdaO5dwA5m8af+A/W1hMPFDlZeJkWCY0uZMCfdn1zzCFEEOrvSnqqzg/uwkIOm9gkgyIpM1LMxSJ2OlUkEuGZ2sGbukQtzSdMHDndJ9y8JeDsqcB7mzt88nc3deb1O9AJ7s/ak8RcCTvaBVlupDE8DUIg+NGMo0gxPsEKPF4YAWmylJRYEBq4FyS2rJsFrFzEhCBdSF77OccZZ5Of2MZ6h5ru8Fbc8Iys7ez6qRwH+rF3GR8fv80YkhAM0z8erQifTI8HljaDP54kQM+DT1wJ7qI/V2Yyq/jdePzyfA27jbzS+Iy//7J4Muzc8Nef4H);lineShape=1;strokeColor=#001DBC;hachureGap=4;fontFamily=Architects Daughter;fontSource=https%3A%2F%2Ffonts.googleapis.com%2Fcss%3Ffamily%3DArchitects%2BDaughter;fillColor=#0050ef;fontColor=#ffffff;" vertex="1" parent="1">
          <mxGeometry x="261.8677504975029" y="281.8264350038388" width="11.657046085045879" height="1.9320066806167078" as="geometry" />
        </mxCell>
        <mxCell id="i7MlMyAg6a_LaQY61Rji-90" value="" style="shape=stencil(rVfZbttADPwavxK73JPPafofAeI0Rl07cJIef1+q7qomJU1RoG+2xNHyGA65u3T3+vzwst9xeH27nD/vvx0e35536cOO+XB63l8Ob/prl+536e7pfNl/upzfT4/X/y8Pk+X068v56/SF71dcjBTLhOLw4/cTivnXg49X++PhdGvfqHRjXyiGbXvOJNl+P1LhbUAqFIIFZKppG5AThWQBnbhsA4p+z7rETAXEXGWEOAMqSd0G9EDSDCAFauAEUQfEAhJlcEIMwacpR6oAIW24PBcuUAVp6kIlWkChHAFAmWMBNUJAYxIH0BMAN2qiavPaAnUBpS6eG62QAEDW12wAnSkhugol61Lvo5brgEBsTxAtNeA3J2JLVy1lawAQfEuLwBNipWrZd0OvdcTSJ4GVi+pTXQQB2De/ne1VZ0DQldiGIHEIzzozFnXukKuaIit7PcPv69ecvfqDMrrQ4SZUESBTtgLQOiUEaMOBG0AEIesk4OpdCkBiVOtdkTVoCNCqueZJsJ+VFsmltQ0nNwH2BFHFAESdXHLE06g6DtpKjDIb9c6UVgfoUJO0cN31jkDuKTV80ALHz0Q+9i6hdu5jOM32FVKpjtF0o3kBdPOyO3Ez1MH82b7C76u6OBoxdZSgMDgwA8Kg7v8BaEqjFbA6T5b1OdJ9K0zTFsSQu5dUnY4RDc/mq1ZmFV+vQqHmdpIKu7PlsXfdLDENTCoV3W5j0PmbATEmEbWALGM3WwcEH3RuQ5nXs6RMcycwNRC0hui6M+FmS+xnT4pjcdqSJAdgGXvQOlu136wk6ScKED0ZK/y8MKhGgTKksUPN9mksl+sOkdgAIg+2r9qHxSVDn4CiBT93BC55i11bL0Ggwov9q8Dk6NXAJicPNd7IjSMow+sR+9LinVy3Cut7wFcjP/wCHPjKkubNQWbE3zUDlMR/vsv+1V5//Lk4Px2Ox+u9+/a9v2jro+slPd3/BA==);lineShape=1;strokeColor=#001DBC;hachureGap=4;fontFamily=Architects Daughter;fontSource=https%3A%2F%2Ffonts.googleapis.com%2Fcss%3Ffamily%3DArchitects%2BDaughter;fillColor=#0050ef;fontColor=#ffffff;" vertex="1" parent="1">
          <mxGeometry x="267.44801272306427" y="277.7354445132607" width="10.073620304192907" height="9.916898373787987" as="geometry" />
        </mxCell>
        <mxCell id="i7MlMyAg6a_LaQY61Rji-91" value="" style="shape=stencil(lVnbchshDP0av2oAcRHPafsfmYnTeJrGGSe9/X1FXexF7B5P3pK1zgLicHTE7vju7en+db8L7u39dPy2/3V4eH/a8addCIeXp/3p8K5/7fjzju8ej6f919Pxx8vD+f/X+xbZ/vp+/Nne8PuM8xRqAwX35/wgOZL078mXc/zz4WURz+TCEB8r+bwdn8iP74+OYtiOLxTTEB8qFRBfqbox3pPwdrwP5EaAzyRgAM9UeAQkCiBD+nMdl+AdHkEolAHAJBHE1/66y5op++14zUiqJv7/pqzH64q9jS8gPpMze0aM4oVyMfFoy1g5KiY/aD7M9v1MAeSHE2Wbn4qOQKGcTXwA+8uVsqFcf7AaH/3EOPIgP1HpMq7XUQFHMibLH0csIL5QSibeoflXcuN+xf5gXSJcp2+PrzCfKXQFucZnkJ8UiacD6RAgEzsLYDQjsSdAARGkKKmoyQQAZz57y1EfKQJSZ7aHRmWDAauzqppRUqzUOVP1FoCEMUun5WJKSBjLpRQtAAUwqbBlnk4pgX0outNmDQEDhLzJEkPyFZ2xETulIwBImNQownIgqavDAoBKpuh5ngAJFITqyKePjFDX1lAAW6v+HD+SpSq2pnGAXKpqU0bR4AxVVQFG9WLodXoLICO9r8K2Xseds14ku1tD1HEIPSIBcEMBZVyE8jGCE6QAHvOqbHEor2JVQDffoTVINwcXQCSPuFFsudIRKgbwCBCBBbeqkhmAyi1Ka7YOowRYchVg6JpDL9qbI4xKlhjWrLYGQ9dIAU1JszRySX1NRFMqlt9qtJBv0J2OIzU4wIrSuDSugWMXki22GiegXqveOA/jxqm5gTut7xsBag4qyNLaoc791G7qxqh9WpUSqKNNmUb9lojZNxkyVXQox2K1r2pPgDZC7KIVkNGUVgGIfVOFkAS7mLkGaZYELXqqcg0AZGOuowqoqLRPlfrWCGtryMgATfy+kaXZzyhAEGByTDcKxOzJpGLA5PoUUJA3nnxlA4C0tgPpLAA6V02iIZ9ALqn7TsVmCYmA+ntT5IQhl+YOoghsCOYepQHQzc3UBSkggX2Y+ywFIHq3Rs6MUDsdtzrF4O0IyGxEsWwtHnZyMdsp5QIvA2KcKnuB6q0uMkYLQEc0OrsPyl8k9yydzAsAvADJtowq4SOYEk9irAC0D63wmyypVAIha/d6YkeAl1DF7rQCUGW/dlULAKrs7ZYt2LSiRbdrmHkEfLFnLksVgGTGl+7+LwDBLUeiZM4Dvntrt5/G6XI3y1v3qyFYAOrZ29WK6WkydAIylemARaM7l4vT8FDs2b5fvQoyS94enoUF3ACYktsMHViws0qvTryAPbtceSwaLNTeO3tTpE4I3RS53q4tLEOA8zGfDEqFCjkZaGVQBpTT+JFAKqio7Dh70ZVxW+JsG5Nuvd80h1oYA4y3LYbH9/8f/GRzO17/uH4fejw8P58/Ly1/t9+T9NH5WxR//gs=);lineShape=1;strokeColor=#001DBC;hachureGap=4;fontFamily=Architects Daughter;fontSource=https%3A%2F%2Ffonts.googleapis.com%2Fcss%3Ffamily%3DArchitects%2BDaughter;fillColor=#0050ef;fontColor=#ffffff;" vertex="1" parent="1">
          <mxGeometry x="283.000595688326" y="263.4264137589382" width="55.31538114442995" height="3.062235348866279" as="geometry" />
        </mxCell>
        <mxCell id="i7MlMyAg6a_LaQY61Rji-92" value="" style="shape=stencil(rVfZbttADPwavxK73JPPafofAeI0Rl07cJIef1+q7qomJU1RoG+2xNHyGA65u3T3+vzwst9xeH27nD/vvx0e35536cOO+XB63l8Ob/prl+536e7pfNl/upzfT4/X/y8Pk+X068v56/SF71dcjBTLhOLw4/cTivnXg49X++PhdGvfqHRjXyiGbXvOJNl+P1LhbUAqFIIFZKppG5AThWQBnbhsA4p+z7rETAXEXGWEOAMqSd0G9EDSDCAFauAEUQfEAhJlcEIMwacpR6oAIW24PBcuUAVp6kIlWkChHAFAmWMBNUJAYxIH0BMAN2qiavPaAnUBpS6eG62QAEDW12wAnSkhugol61Lvo5brgEBsTxAtNeA3J2JLVy1lawAQfEuLwBNipWrZd0OvdcTSJ4GVi+pTXQQB2De/ne1VZ0DQldiGIHEIzzozFnXukKuaIit7PcPv69ecvfqDMrrQ4SZUESBTtgLQOiUEaMOBG0AEIesk4OpdCkBiVOtdkTVoCNCqueZJsJ+VFsmltQ0nNwH2BFHFAESdXHLE06g6DtpKjDIb9c6UVgfoUJO0cN31jkDuKTV80ALHz0Q+9i6hdu5jOM32FVKpjtF0o3kBdPOyO3Ez1MH82b7C76u6OBoxdZSgMDgwA8Kg7v8BaEqjFbA6T5b1OdJ9K0zTFsSQu5dUnY4RDc/mq1ZmFV+vQqHmdpIKu7PlsXfdLDENTCoV3W5j0PmbATEmEbWALGM3WwcEH3RuQ5nXs6RMcycwNRC0hui6M+FmS+xnT4pjcdqSJAdgGXvQOlu136wk6ScKED0ZK/y8MKhGgTKksUPN9mksl+sOkdgAIg+2r9qHxSVDn4CiBT93BC55i11bL0Ggwov9q8Dk6NXAJicPNd7IjSMow+sR+9LinVy3Cut7wFcjP/wCHPjKkubNQWbE3zUDlMR/vsv+1V5//Lk4Px2Ox+u9+/a9v2jro+slPd3/BA==);lineShape=1;strokeColor=#001DBC;hachureGap=4;fontFamily=Architects Daughter;fontSource=https%3A%2F%2Ffonts.googleapis.com%2Fcss%3Ffamily%3DArchitects%2BDaughter;fillColor=#0050ef;fontColor=#ffffff;" vertex="1" parent="1">
          <mxGeometry x="333.2280127230643" y="259.9954445132607" width="10.073620304192907" height="9.916898373787987" as="geometry" />
        </mxCell>
        <mxCell id="i7MlMyAg6a_LaQY61Rji-93" value="" style="shape=stencil(fZbdcgIhDIWfZm8zQAg/17Z9j85U606tdqz9e/tmZ0c0uJ47xP0I5JwEBl59bp8/1kNwn6fj4W39M76ctgM/DCGM++36OJ50NPDjwKvN4bh+PR6+9i/z74/n6ctp9H74nlb4nbmSKZeJCu5vngmZ6jzzNAO7cX8FVKEsBuBKrgKg9oAE8gkCbLeUhEoEQKSUDZDLeWYRKIl8MEDRmHwfyBrBG6Amyu4+kDxxMoB3jhwgYu7TVAsVkFcWCs4CTBEoF4RctKeOxHIf8IXYpikHikAIf+MNUW94AGSSaoAoFIE3AlOyeWU+p2E5S9yfQZcQILVuQOwZdJNoS9Ls3wA5u2XZTIHECqeJ9kDpSaauRiNVcAY1QhdBzeLBli5WazpkSsBLV25uRaqWRyFawTQzRRIQYirJzq5atkBqLfouwqUxLBepthWb10vrWZY6UOAeyKCCtDV625mm9gmUC4Wc3VLJMMIE1BsA2FW9JraVlQB7n3c9oMKhCLEvIM1zBPZ25/umNQ1tVEC2G+fFCC8g398O2hNQuQlVu752DBfA+q0ptnqO5JFmeuIuo9DY7KjY71UxdJV4EntifPWorW++R/dC4t7V3DlIB5cHx2bc7eb3yvX//QNFp+bHDT/+Aw==);lineShape=1;strokeColor=#B20000;fillColor=#e51400;fontColor=#ffffff;" vertex="1" parent="1">
          <mxGeometry x="218.50889810735407" y="298.14982619091745" width="1.5839117871576998" height="1.5814360055449823" as="geometry" />
        </mxCell>
        <mxCell id="i7MlMyAg6a_LaQY61Rji-94" value="" style="shape=stencil(fZbdcgIhDIWfZm8zQAg/17Z9j85U606tdqz9e/tmZ0c0uJ47xP0I5JwEBl59bp8/1kNwn6fj4W39M76ctgM/DCGM++36OJ50NPDjwKvN4bh+PR6+9i/z74/n6ctp9H74nlb4nbmSKZeJCu5vngmZ6jzzNAO7cX8FVKEsBuBKrgKg9oAE8gkCbLeUhEoEQKSUDZDLeWYRKIl8MEDRmHwfyBrBG6Amyu4+kDxxMoB3jhwgYu7TVAsVkFcWCs4CTBEoF4RctKeOxHIf8IXYpikHikAIf+MNUW94AGSSaoAoFIE3AlOyeWU+p2E5S9yfQZcQILVuQOwZdJNoS9Ls3wA5u2XZTIHECqeJ9kDpSaauRiNVcAY1QhdBzeLBli5WazpkSsBLV25uRaqWRyFawTQzRRIQYirJzq5atkBqLfouwqUxLBepthWb10vrWZY6UOAeyKCCtDV625mm9gmUC4Wc3VLJMMIE1BsA2FW9JraVlQB7n3c9oMKhCLEvIM1zBPZ25/umNQ1tVEC2G+fFCC8g398O2hNQuQlVu752DBfA+q0ptnqO5JFmeuIuo9DY7KjY71UxdJV4EntifPWorW++R/dC4t7V3DlIB5cHx2bc7eb3yvX//QNFp+bHDT/+Aw==);lineShape=1;strokeColor=#B20000;fillColor=#e51400;fontColor=#ffffff;" vertex="1" parent="1">
          <mxGeometry x="222.30551241482226" y="298.14982619091745" width="1.5839117871576998" height="1.5814360055449823" as="geometry" />
        </mxCell>
        <mxCell id="i7MlMyAg6a_LaQY61Rji-95" value="" style="shape=stencil(fZbdcgIhDIWfZm8zQAg/17Z9j85U606tdqz9e/tmZ0c0uJ47xP0I5JwEBl59bp8/1kNwn6fj4W39M76ctgM/DCGM++36OJ50NPDjwKvN4bh+PR6+9i/z74/n6ctp9H74nlb4nbmSKZeJCu5vngmZ6jzzNAO7cX8FVKEsBuBKrgKg9oAE8gkCbLeUhEoEQKSUDZDLeWYRKIl8MEDRmHwfyBrBG6Amyu4+kDxxMoB3jhwgYu7TVAsVkFcWCs4CTBEoF4RctKeOxHIf8IXYpikHikAIf+MNUW94AGSSaoAoFIE3AlOyeWU+p2E5S9yfQZcQILVuQOwZdJNoS9Ls3wA5u2XZTIHECqeJ9kDpSaauRiNVcAY1QhdBzeLBli5WazpkSsBLV25uRaqWRyFawTQzRRIQYirJzq5atkBqLfouwqUxLBepthWb10vrWZY6UOAeyKCCtDV625mm9gmUC4Wc3VLJMMIE1BsA2FW9JraVlQB7n3c9oMKhCLEvIM1zBPZ25/umNQ1tVEC2G+fFCC8g398O2hNQuQlVu752DBfA+q0ptnqO5JFmeuIuo9DY7KjY71UxdJV4EntifPWorW++R/dC4t7V3DlIB5cHx2bc7eb3yvX//QNFp+bHDT/+Aw==);lineShape=1;strokeColor=#B20000;fillColor=#e51400;fontColor=#ffffff;" vertex="1" parent="1">
          <mxGeometry x="227.05127512668673" y="298.14982619091745" width="1.5839117871576998" height="1.5814360055449823" as="geometry" />
        </mxCell>
        <mxCell id="i7MlMyAg6a_LaQY61Rji-96" value="" style="shape=stencil(fZbdcgIhDIWfZm8zQAg/17Z9j85U606tdqz9e/tmZ0c0uJ47xP0I5JwEBl59bp8/1kNwn6fj4W39M76ctgM/DCGM++36OJ50NPDjwKvN4bh+PR6+9i/z74/n6ctp9H74nlb4nbmSKZeJCu5vngmZ6jzzNAO7cX8FVKEsBuBKrgKg9oAE8gkCbLeUhEoEQKSUDZDLeWYRKIl8MEDRmHwfyBrBG6Amyu4+kDxxMoB3jhwgYu7TVAsVkFcWCs4CTBEoF4RctKeOxHIf8IXYpikHikAIf+MNUW94AGSSaoAoFIE3AlOyeWU+p2E5S9yfQZcQILVuQOwZdJNoS9Ls3wA5u2XZTIHECqeJ9kDpSaauRiNVcAY1QhdBzeLBli5WazpkSsBLV25uRaqWRyFawTQzRRIQYirJzq5atkBqLfouwqUxLBepthWb10vrWZY6UOAeyKCCtDV625mm9gmUC4Wc3VLJMMIE1BsA2FW9JraVlQB7n3c9oMKhCLEvIM1zBPZ25/umNQ1tVEC2G+fFCC8g398O2hNQuQlVu752DBfA+q0ptnqO5JFmeuIuo9DY7KjY71UxdJV4EntifPWorW++R/dC4t7V3DlIB5cHx2bc7eb3yvX//QNFp+bHDT/+Aw==);lineShape=1;strokeColor=#B20000;fillColor=#e51400;fontColor=#ffffff;" vertex="1" parent="1">
          <mxGeometry x="230.84788943415492" y="298.14982619091745" width="1.5839117871576998" height="1.5814360055449823" as="geometry" />
        </mxCell>
        <mxCell id="i7MlMyAg6a_LaQY61Rji-97" value="" style="shape=stencil(fZbdcgIhDIWfZm8zQAg/17Z9j85U606tdqz9e/tmZ0c0uJ47xP0I5JwEBl59bp8/1kNwn6fj4W39M76ctgM/DCGM++36OJ50NPDjwKvN4bh+PR6+9i/z74/n6ctp9H74nlb4nbmSKZeJCu5vngmZ6jzzNAO7cX8FVKEsBuBKrgKg9oAE8gkCbLeUhEoEQKSUDZDLeWYRKIl8MEDRmHwfyBrBG6Amyu4+kDxxMoB3jhwgYu7TVAsVkFcWCs4CTBEoF4RctKeOxHIf8IXYpikHikAIf+MNUW94AGSSaoAoFIE3AlOyeWU+p2E5S9yfQZcQILVuQOwZdJNoS9Ls3wA5u2XZTIHECqeJ9kDpSaauRiNVcAY1QhdBzeLBli5WazpkSsBLV25uRaqWRyFawTQzRRIQYirJzq5atkBqLfouwqUxLBepthWb10vrWZY6UOAeyKCCtDV625mm9gmUC4Wc3VLJMMIE1BsA2FW9JraVlQB7n3c9oMKhCLEvIM1zBPZ25/umNQ1tVEC2G+fFCC8g398O2hNQuQlVu752DBfA+q0ptnqO5JFmeuIuo9DY7KjY71UxdJV4EntifPWorW++R/dC4t7V3DlIB5cHx2bc7eb3yvX//QNFp+bHDT/+Aw==);lineShape=1;strokeColor=#B20000;fillColor=#e51400;fontColor=#ffffff;" vertex="1" parent="1">
          <mxGeometry x="234.9608727498329" y="298.14982619091745" width="1.5839117871576998" height="1.5814360055449823" as="geometry" />
        </mxCell>
        <mxCell id="i7MlMyAg6a_LaQY61Rji-98" value="" style="shape=stencil(fZbdcgIhDIWfZm8zQAg/17Z9j85U606tdqz9e/tmZ0c0uJ47xP0I5JwEBl59bp8/1kNwn6fj4W39M76ctgM/DCGM++36OJ50NPDjwKvN4bh+PR6+9i/z74/n6ctp9H74nlb4nbmSKZeJCu5vngmZ6jzzNAO7cX8FVKEsBuBKrgKg9oAE8gkCbLeUhEoEQKSUDZDLeWYRKIl8MEDRmHwfyBrBG6Amyu4+kDxxMoB3jhwgYu7TVAsVkFcWCs4CTBEoF4RctKeOxHIf8IXYpikHikAIf+MNUW94AGSSaoAoFIE3AlOyeWU+p2E5S9yfQZcQILVuQOwZdJNoS9Ls3wA5u2XZTIHECqeJ9kDpSaauRiNVcAY1QhdBzeLBli5WazpkSsBLV25uRaqWRyFawTQzRRIQYirJzq5atkBqLfouwqUxLBepthWb10vrWZY6UOAeyKCCtDV625mm9gmUC4Wc3VLJMMIE1BsA2FW9JraVlQB7n3c9oMKhCLEvIM1zBPZ25/umNQ1tVEC2G+fFCC8g398O2hNQuQlVu752DBfA+q0ptnqO5JFmeuIuo9DY7KjY71UxdJV4EntifPWorW++R/dC4t7V3DlIB5cHx2bc7eb3yvX//QNFp+bHDT/+Aw==);lineShape=1;strokeColor=#B20000;fillColor=#e51400;fontColor=#ffffff;" vertex="1" parent="1">
          <mxGeometry x="240" y="298" width="1.5839117871576998" height="1.5814360055449823" as="geometry" />
        </mxCell>
        <mxCell id="i7MlMyAg6a_LaQY61Rji-99" value="" style="shape=stencil(fZbdcgIhDIWfZm8zQAg/17Z9j85U606tdqz9e/tmZ0c0uJ47xP0I5JwEBl59bp8/1kNwn6fj4W39M76ctgM/DCGM++36OJ50NPDjwKvN4bh+PR6+9i/z74/n6ctp9H74nlb4nbmSKZeJCu5vngmZ6jzzNAO7cX8FVKEsBuBKrgKg9oAE8gkCbLeUhEoEQKSUDZDLeWYRKIl8MEDRmHwfyBrBG6Amyu4+kDxxMoB3jhwgYu7TVAsVkFcWCs4CTBEoF4RctKeOxHIf8IXYpikHikAIf+MNUW94AGSSaoAoFIE3AlOyeWU+p2E5S9yfQZcQILVuQOwZdJNoS9Ls3wA5u2XZTIHECqeJ9kDpSaauRiNVcAY1QhdBzeLBli5WazpkSsBLV25uRaqWRyFawTQzRRIQYirJzq5atkBqLfouwqUxLBepthWb10vrWZY6UOAeyKCCtDV625mm9gmUC4Wc3VLJMMIE1BsA2FW9JraVlQB7n3c9oMKhCLEvIM1zBPZ25/umNQ1tVEC2G+fFCC8g398O2hNQuQlVu752DBfA+q0ptnqO5JFmeuIuo9DY7KjY71UxdJV4EntifPWorW++R/dC4t7V3DlIB5cHx2bc7eb3yvX//QNFp+bHDT/+Aw==);lineShape=1;strokeColor=#B20000;fillColor=#e51400;fontColor=#ffffff;" vertex="1" parent="1">
          <mxGeometry x="243.7966143074682" y="298" width="1.5839117871576998" height="1.5814360055449823" as="geometry" />
        </mxCell>
        <mxCell id="i7MlMyAg6a_LaQY61Rji-100" value="" style="shape=stencil(fZbdcgIhDIWfZm8zQAg/17Z9j85U606tdqz9e/tmZ0c0uJ47xP0I5JwEBl59bp8/1kNwn6fj4W39M76ctgM/DCGM++36OJ50NPDjwKvN4bh+PR6+9i/z74/n6ctp9H74nlb4nbmSKZeJCu5vngmZ6jzzNAO7cX8FVKEsBuBKrgKg9oAE8gkCbLeUhEoEQKSUDZDLeWYRKIl8MEDRmHwfyBrBG6Amyu4+kDxxMoB3jhwgYu7TVAsVkFcWCs4CTBEoF4RctKeOxHIf8IXYpikHikAIf+MNUW94AGSSaoAoFIE3AlOyeWU+p2E5S9yfQZcQILVuQOwZdJNoS9Ls3wA5u2XZTIHECqeJ9kDpSaauRiNVcAY1QhdBzeLBli5WazpkSsBLV25uRaqWRyFawTQzRRIQYirJzq5atkBqLfouwqUxLBepthWb10vrWZY6UOAeyKCCtDV625mm9gmUC4Wc3VLJMMIE1BsA2FW9JraVlQB7n3c9oMKhCLEvIM1zBPZ25/umNQ1tVEC2G+fFCC8g398O2hNQuQlVu752DBfA+q0ptnqO5JFmeuIuo9DY7KjY71UxdJV4EntifPWorW++R/dC4t7V3DlIB5cHx2bc7eb3yvX//QNFp+bHDT/+Aw==);lineShape=1;strokeColor=#B20000;fillColor=#e51400;fontColor=#ffffff;" vertex="1" parent="1">
          <mxGeometry x="248.54237701933266" y="298" width="1.5839117871576998" height="1.5814360055449823" as="geometry" />
        </mxCell>
        <mxCell id="i7MlMyAg6a_LaQY61Rji-101" value="" style="shape=stencil(fZbdcgIhDIWfZm8zQAg/17Z9j85U606tdqz9e/tmZ0c0uJ47xP0I5JwEBl59bp8/1kNwn6fj4W39M76ctgM/DCGM++36OJ50NPDjwKvN4bh+PR6+9i/z74/n6ctp9H74nlb4nbmSKZeJCu5vngmZ6jzzNAO7cX8FVKEsBuBKrgKg9oAE8gkCbLeUhEoEQKSUDZDLeWYRKIl8MEDRmHwfyBrBG6Amyu4+kDxxMoB3jhwgYu7TVAsVkFcWCs4CTBEoF4RctKeOxHIf8IXYpikHikAIf+MNUW94AGSSaoAoFIE3AlOyeWU+p2E5S9yfQZcQILVuQOwZdJNoS9Ls3wA5u2XZTIHECqeJ9kDpSaauRiNVcAY1QhdBzeLBli5WazpkSsBLV25uRaqWRyFawTQzRRIQYirJzq5atkBqLfouwqUxLBepthWb10vrWZY6UOAeyKCCtDV625mm9gmUC4Wc3VLJMMIE1BsA2FW9JraVlQB7n3c9oMKhCLEvIM1zBPZ25/umNQ1tVEC2G+fFCC8g398O2hNQuQlVu752DBfA+q0ptnqO5JFmeuIuo9DY7KjY71UxdJV4EntifPWorW++R/dC4t7V3DlIB5cHx2bc7eb3yvX//QNFp+bHDT/+Aw==);lineShape=1;strokeColor=#B20000;fillColor=#e51400;fontColor=#ffffff;" vertex="1" parent="1">
          <mxGeometry x="252.33899132680085" y="298" width="1.5839117871576998" height="1.5814360055449823" as="geometry" />
        </mxCell>
        <mxCell id="i7MlMyAg6a_LaQY61Rji-102" value="" style="shape=stencil(fZbdcgIhDIWfZm8zQAg/17Z9j85U606tdqz9e/tmZ0c0uJ47xP0I5JwEBl59bp8/1kNwn6fj4W39M76ctgM/DCGM++36OJ50NPDjwKvN4bh+PR6+9i/z74/n6ctp9H74nlb4nbmSKZeJCu5vngmZ6jzzNAO7cX8FVKEsBuBKrgKg9oAE8gkCbLeUhEoEQKSUDZDLeWYRKIl8MEDRmHwfyBrBG6Amyu4+kDxxMoB3jhwgYu7TVAsVkFcWCs4CTBEoF4RctKeOxHIf8IXYpikHikAIf+MNUW94AGSSaoAoFIE3AlOyeWU+p2E5S9yfQZcQILVuQOwZdJNoS9Ls3wA5u2XZTIHECqeJ9kDpSaauRiNVcAY1QhdBzeLBli5WazpkSsBLV25uRaqWRyFawTQzRRIQYirJzq5atkBqLfouwqUxLBepthWb10vrWZY6UOAeyKCCtDV625mm9gmUC4Wc3VLJMMIE1BsA2FW9JraVlQB7n3c9oMKhCLEvIM1zBPZ25/umNQ1tVEC2G+fFCC8g398O2hNQuQlVu752DBfA+q0ptnqO5JFmeuIuo9DY7KjY71UxdJV4EntifPWorW++R/dC4t7V3DlIB5cHx2bc7eb3yvX//QNFp+bHDT/+Aw==);lineShape=1;strokeColor=#B20000;fillColor=#e51400;fontColor=#ffffff;" vertex="1" parent="1">
          <mxGeometry x="256.45197464247883" y="298" width="1.5839117871576998" height="1.5814360055449823" as="geometry" />
        </mxCell>
        <mxCell id="i7MlMyAg6a_LaQY61Rji-103" value="" style="shape=stencil(fZbdcgIhDIWfZm8zQAg/17Z9j85U606tdqz9e/tmZ0c0uJ47xP0I5JwEBl59bp8/1kNwn6fj4W39M76ctgM/DCGM++36OJ50NPDjwKvN4bh+PR6+9i/z74/n6ctp9H74nlb4nbmSKZeJCu5vngmZ6jzzNAO7cX8FVKEsBuBKrgKg9oAE8gkCbLeUhEoEQKSUDZDLeWYRKIl8MEDRmHwfyBrBG6Amyu4+kDxxMoB3jhwgYu7TVAsVkFcWCs4CTBEoF4RctKeOxHIf8IXYpikHikAIf+MNUW94AGSSaoAoFIE3AlOyeWU+p2E5S9yfQZcQILVuQOwZdJNoS9Ls3wA5u2XZTIHECqeJ9kDpSaauRiNVcAY1QhdBzeLBli5WazpkSsBLV25uRaqWRyFawTQzRRIQYirJzq5atkBqLfouwqUxLBepthWb10vrWZY6UOAeyKCCtDV625mm9gmUC4Wc3VLJMMIE1BsA2FW9JraVlQB7n3c9oMKhCLEvIM1zBPZ25/umNQ1tVEC2G+fFCC8g398O2hNQuQlVu752DBfA+q0ptnqO5JFmeuIuo9DY7KjY71UxdJV4EntifPWorW++R/dC4t7V3DlIB5cHx2bc7eb3yvX//QNFp+bHDT/+Aw==);lineShape=1;strokeColor=#B20000;fillColor=#e51400;fontColor=#ffffff;" vertex="1" parent="1">
          <mxGeometry x="261" y="298" width="1.5839117871576998" height="1.5814360055449823" as="geometry" />
        </mxCell>
        <mxCell id="i7MlMyAg6a_LaQY61Rji-104" value="" style="shape=stencil(fZbdcgIhDIWfZm8zQAg/17Z9j85U606tdqz9e/tmZ0c0uJ47xP0I5JwEBl59bp8/1kNwn6fj4W39M76ctgM/DCGM++36OJ50NPDjwKvN4bh+PR6+9i/z74/n6ctp9H74nlb4nbmSKZeJCu5vngmZ6jzzNAO7cX8FVKEsBuBKrgKg9oAE8gkCbLeUhEoEQKSUDZDLeWYRKIl8MEDRmHwfyBrBG6Amyu4+kDxxMoB3jhwgYu7TVAsVkFcWCs4CTBEoF4RctKeOxHIf8IXYpikHikAIf+MNUW94AGSSaoAoFIE3AlOyeWU+p2E5S9yfQZcQILVuQOwZdJNoS9Ls3wA5u2XZTIHECqeJ9kDpSaauRiNVcAY1QhdBzeLBli5WazpkSsBLV25uRaqWRyFawTQzRRIQYirJzq5atkBqLfouwqUxLBepthWb10vrWZY6UOAeyKCCtDV625mm9gmUC4Wc3VLJMMIE1BsA2FW9JraVlQB7n3c9oMKhCLEvIM1zBPZ25/umNQ1tVEC2G+fFCC8g398O2hNQuQlVu752DBfA+q0ptnqO5JFmeuIuo9DY7KjY71UxdJV4EntifPWorW++R/dC4t7V3DlIB5cHx2bc7eb3yvX//QNFp+bHDT/+Aw==);lineShape=1;strokeColor=#B20000;fillColor=#e51400;fontColor=#ffffff;" vertex="1" parent="1">
          <mxGeometry x="264.7966143074682" y="298" width="1.5839117871576998" height="1.5814360055449823" as="geometry" />
        </mxCell>
        <mxCell id="i7MlMyAg6a_LaQY61Rji-105" value="" style="shape=stencil(fZbdcgIhDIWfZm8zQAg/17Z9j85U606tdqz9e/tmZ0c0uJ47xP0I5JwEBl59bp8/1kNwn6fj4W39M76ctgM/DCGM++36OJ50NPDjwKvN4bh+PR6+9i/z74/n6ctp9H74nlb4nbmSKZeJCu5vngmZ6jzzNAO7cX8FVKEsBuBKrgKg9oAE8gkCbLeUhEoEQKSUDZDLeWYRKIl8MEDRmHwfyBrBG6Amyu4+kDxxMoB3jhwgYu7TVAsVkFcWCs4CTBEoF4RctKeOxHIf8IXYpikHikAIf+MNUW94AGSSaoAoFIE3AlOyeWU+p2E5S9yfQZcQILVuQOwZdJNoS9Ls3wA5u2XZTIHECqeJ9kDpSaauRiNVcAY1QhdBzeLBli5WazpkSsBLV25uRaqWRyFawTQzRRIQYirJzq5atkBqLfouwqUxLBepthWb10vrWZY6UOAeyKCCtDV625mm9gmUC4Wc3VLJMMIE1BsA2FW9JraVlQB7n3c9oMKhCLEvIM1zBPZ25/umNQ1tVEC2G+fFCC8g398O2hNQuQlVu752DBfA+q0ptnqO5JFmeuIuo9DY7KjY71UxdJV4EntifPWorW++R/dC4t7V3DlIB5cHx2bc7eb3yvX//QNFp+bHDT/+Aw==);lineShape=1;strokeColor=#B20000;fillColor=#e51400;fontColor=#ffffff;" vertex="1" parent="1">
          <mxGeometry x="269.54237701933266" y="298" width="1.5839117871576998" height="1.5814360055449823" as="geometry" />
        </mxCell>
        <mxCell id="i7MlMyAg6a_LaQY61Rji-106" value="" style="shape=stencil(fZbdcgIhDIWfZm8zQAg/17Z9j85U606tdqz9e/tmZ0c0uJ47xP0I5JwEBl59bp8/1kNwn6fj4W39M76ctgM/DCGM++36OJ50NPDjwKvN4bh+PR6+9i/z74/n6ctp9H74nlb4nbmSKZeJCu5vngmZ6jzzNAO7cX8FVKEsBuBKrgKg9oAE8gkCbLeUhEoEQKSUDZDLeWYRKIl8MEDRmHwfyBrBG6Amyu4+kDxxMoB3jhwgYu7TVAsVkFcWCs4CTBEoF4RctKeOxHIf8IXYpikHikAIf+MNUW94AGSSaoAoFIE3AlOyeWU+p2E5S9yfQZcQILVuQOwZdJNoS9Ls3wA5u2XZTIHECqeJ9kDpSaauRiNVcAY1QhdBzeLBli5WazpkSsBLV25uRaqWRyFawTQzRRIQYirJzq5atkBqLfouwqUxLBepthWb10vrWZY6UOAeyKCCtDV625mm9gmUC4Wc3VLJMMIE1BsA2FW9JraVlQB7n3c9oMKhCLEvIM1zBPZ25/umNQ1tVEC2G+fFCC8g398O2hNQuQlVu752DBfA+q0ptnqO5JFmeuIuo9DY7KjY71UxdJV4EntifPWorW++R/dC4t7V3DlIB5cHx2bc7eb3yvX//QNFp+bHDT/+Aw==);lineShape=1;strokeColor=#B20000;fillColor=#e51400;fontColor=#ffffff;" vertex="1" parent="1">
          <mxGeometry x="273.33899132680085" y="298" width="1.5839117871576998" height="1.5814360055449823" as="geometry" />
        </mxCell>
        <mxCell id="i7MlMyAg6a_LaQY61Rji-108" value="" style="shape=stencil(lVfbchoxDP2afdVYlq/PafofmQkpO6WQIfT299V2Zwm22AO8LebIlo6kY3mQp4/ty/tm8O7jdDx83/weX0/bQb4M3o/77eY4nvRrkOdBnt4Ox8234+Hn/nX+/f4yIaevH4df0w5/ZrtEvkxG3v2dF5ip+P8rX2f8btxf4FlIXGvgqOZ1A88koTEoVCLAV0rS4BMFWcdLIecbfCAH9g+Zam3wngKv42OhkNuAlw2u4pP6Uzt8AITmRCk1eEc5reMrU5YO7xzAB5LcxZuAPzVRbvOlCfbogEKxLaGJoQAMKmVuDCQtOb9ec+4c4mIR/bLH2hGhLQpNS0QGmrWuSv3C2xpNnUvVU0FRy+LA2UAbAURd3fL32aDCoEsh38ZQI0kBBhpDe4KuCEh1CRTaoLPA5ikadGwTp0Qjl4xB0GJ6yCXViwgSZ4NWSUugoSdaO5dwA5m8af+A/W1hMPFDlZeJkWCY0uZMCfdn1zzCFEEOrvSnqqzg/uwkIOm9gkgyIpM1LMxSJ2OlUkEuGZ2sGbukQtzSdMHDndJ9y8JeDsqcB7mzt88nc3deb1O9AJ7s/ak8RcCTvaBVlupDE8DUIg+NGMo0gxPsEKPF4YAWmylJRYEBq4FyS2rJsFrFzEhCBdSF77OccZZ5Of2MZ6h5ru8Fbc8Iys7ez6qRwH+rF3GR8fv80YkhAM0z8erQifTI8HljaDP54kQM+DT1wJ7qI/V2Yyq/jdePzyfA27jbzS+Iy//7J4Muzc8Nef4H);lineShape=1;strokeColor=#B20000;hachureGap=4;fontFamily=Architects Daughter;fontSource=https%3A%2F%2Ffonts.googleapis.com%2Fcss%3Ffamily%3DArchitects%2BDaughter;fillColor=#e51400;fontColor=#ffffff;" vertex="1" parent="1">
          <mxGeometry x="284" y="282.0909904905782" width="11.657046085045879" height="1.9320066806167078" as="geometry" />
        </mxCell>
        <mxCell id="i7MlMyAg6a_LaQY61Rji-109" value="" style="shape=stencil(rVfZbttADPwavxK73JPPafofAeI0Rl07cJIef1+q7qomJU1RoG+2xNHyGA65u3T3+vzwst9xeH27nD/vvx0e35536cOO+XB63l8Ob/prl+536e7pfNl/upzfT4/X/y8Pk+X068v56/SF71dcjBTLhOLw4/cTivnXg49X++PhdGvfqHRjXyiGbXvOJNl+P1LhbUAqFIIFZKppG5AThWQBnbhsA4p+z7rETAXEXGWEOAMqSd0G9EDSDCAFauAEUQfEAhJlcEIMwacpR6oAIW24PBcuUAVp6kIlWkChHAFAmWMBNUJAYxIH0BMAN2qiavPaAnUBpS6eG62QAEDW12wAnSkhugol61Lvo5brgEBsTxAtNeA3J2JLVy1lawAQfEuLwBNipWrZd0OvdcTSJ4GVi+pTXQQB2De/ne1VZ0DQldiGIHEIzzozFnXukKuaIit7PcPv69ecvfqDMrrQ4SZUESBTtgLQOiUEaMOBG0AEIesk4OpdCkBiVOtdkTVoCNCqueZJsJ+VFsmltQ0nNwH2BFHFAESdXHLE06g6DtpKjDIb9c6UVgfoUJO0cN31jkDuKTV80ALHz0Q+9i6hdu5jOM32FVKpjtF0o3kBdPOyO3Ez1MH82b7C76u6OBoxdZSgMDgwA8Kg7v8BaEqjFbA6T5b1OdJ9K0zTFsSQu5dUnY4RDc/mq1ZmFV+vQqHmdpIKu7PlsXfdLDENTCoV3W5j0PmbATEmEbWALGM3WwcEH3RuQ5nXs6RMcycwNRC0hui6M+FmS+xnT4pjcdqSJAdgGXvQOlu136wk6ScKED0ZK/y8MKhGgTKksUPN9mksl+sOkdgAIg+2r9qHxSVDn4CiBT93BC55i11bL0Ggwov9q8Dk6NXAJicPNd7IjSMow+sR+9LinVy3Cut7wFcjP/wCHPjKkubNQWbE3zUDlMR/vsv+1V5//Lk4Px2Ox+u9+/a9v2jro+slPd3/BA==);lineShape=1;strokeColor=#B20000;hachureGap=4;fontFamily=Architects Daughter;fontSource=https%3A%2F%2Ffonts.googleapis.com%2Fcss%3Ffamily%3DArchitects%2BDaughter;fillColor=#e51400;fontColor=#ffffff;" vertex="1" parent="1">
          <mxGeometry x="289.58026222556134" y="278" width="10.073620304192907" height="9.916898373787987" as="geometry" />
        </mxCell>
        <mxCell id="i7MlMyAg6a_LaQY61Rji-110" value="" style="shape=stencil(fZbdcgIhDIWfZm8zQAg/17Z9j85U606tdqz9e/tmZ0c0uJ47xP0I5JwEBl59bp8/1kNwn6fj4W39M76ctgM/DCGM++36OJ50NPDjwKvN4bh+PR6+9i/z74/n6ctp9H74nlb4nbmSKZeJCu5vngmZ6jzzNAO7cX8FVKEsBuBKrgKg9oAE8gkCbLeUhEoEQKSUDZDLeWYRKIl8MEDRmHwfyBrBG6Amyu4+kDxxMoB3jhwgYu7TVAsVkFcWCs4CTBEoF4RctKeOxHIf8IXYpikHikAIf+MNUW94AGSSaoAoFIE3AlOyeWU+p2E5S9yfQZcQILVuQOwZdJNoS9Ls3wA5u2XZTIHECqeJ9kDpSaauRiNVcAY1QhdBzeLBli5WazpkSsBLV25uRaqWRyFawTQzRRIQYirJzq5atkBqLfouwqUxLBepthWb10vrWZY6UOAeyKCCtDV625mm9gmUC4Wc3VLJMMIE1BsA2FW9JraVlQB7n3c9oMKhCLEvIM1zBPZ25/umNQ1tVEC2G+fFCC8g398O2hNQuQlVu752DBfA+q0ptnqO5JFmeuIuo9DY7KjY71UxdJV4EntifPWorW++R/dC4t7V3DlIB5cHx2bc7eb3yvX//QNFp+bHDT/+Aw==);lineShape=1;strokeColor=#B20000;fillColor=#e51400;fontColor=#ffffff;" vertex="1" parent="1">
          <mxGeometry x="278" y="298" width="1.5839117871576998" height="1.5814360055449823" as="geometry" />
        </mxCell>
        <mxCell id="i7MlMyAg6a_LaQY61Rji-112" value="&lt;div&gt;incoming&lt;/div&gt;&lt;div&gt;request&lt;/div&gt;" style="text;strokeColor=none;fillColor=none;html=1;fontSize=8;fontStyle=0;verticalAlign=middle;align=left;" vertex="1" parent="1">
          <mxGeometry x="125" y="123" width="38" height="19.73" as="geometry" />
        </mxCell>
        <mxCell id="i7MlMyAg6a_LaQY61Rji-113" value="serve" style="text;strokeColor=none;fillColor=none;html=1;fontSize=8;fontStyle=0;verticalAlign=middle;align=left;" vertex="1" parent="1">
          <mxGeometry x="229.45" y="120" width="38" height="19.73" as="geometry" />
        </mxCell>
        <mxCell id="i7MlMyAg6a_LaQY61Rji-114" value="" style="endArrow=none;dashed=1;html=1;dashPattern=1 3;strokeWidth=1;rounded=0;" edge="1" parent="1">
          <mxGeometry width="50" height="50" relative="1" as="geometry">
            <mxPoint x="116" y="165" as="sourcePoint" />
            <mxPoint x="317.27" y="164.91" as="targetPoint" />
          </mxGeometry>
        </mxCell>
        <mxCell id="i7MlMyAg6a_LaQY61Rji-115" value="" style="endArrow=none;dashed=1;html=1;dashPattern=1 3;strokeWidth=1;rounded=0;" edge="1" parent="1">
          <mxGeometry width="50" height="50" relative="1" as="geometry">
            <mxPoint x="116" y="179" as="sourcePoint" />
            <mxPoint x="318" y="179" as="targetPoint" />
          </mxGeometry>
        </mxCell>
        <mxCell id="i7MlMyAg6a_LaQY61Rji-116" value="synchronized access to image cache" style="text;strokeColor=none;fillColor=none;html=1;fontSize=8;fontStyle=0;verticalAlign=middle;align=left;" vertex="1" parent="1">
          <mxGeometry x="259" y="160.82999999999998" width="38" height="19.73" as="geometry" />
        </mxCell>
        <mxCell id="i7MlMyAg6a_LaQY61Rji-117" value="" style="endArrow=none;dashed=1;html=1;dashPattern=1 3;strokeWidth=1;rounded=0;" edge="1" parent="1">
          <mxGeometry width="50" height="50" relative="1" as="geometry">
            <mxPoint x="111" y="276" as="sourcePoint" />
            <mxPoint x="397" y="275.08000000000004" as="targetPoint" />
          </mxGeometry>
        </mxCell>
        <mxCell id="i7MlMyAg6a_LaQY61Rji-118" value="" style="endArrow=none;dashed=1;html=1;dashPattern=1 3;strokeWidth=1;rounded=0;" edge="1" parent="1">
          <mxGeometry width="50" height="50" relative="1" as="geometry">
            <mxPoint x="111" y="290" as="sourcePoint" />
            <mxPoint x="397.73" y="290.17" as="targetPoint" />
          </mxGeometry>
        </mxCell>
        <mxCell id="i7MlMyAg6a_LaQY61Rji-119" value="synchronized access to image cache" style="text;strokeColor=none;fillColor=none;html=1;fontSize=8;fontStyle=0;verticalAlign=middle;align=left;" vertex="1" parent="1">
          <mxGeometry x="338.73" y="271" width="38" height="19.73" as="geometry" />
        </mxCell>
        <mxCell id="i7MlMyAg6a_LaQY61Rji-120" value="" style="verticalLabelPosition=bottom;verticalAlign=top;html=1;shape=mxgraph.basic.4_point_star_2;dx=0.8;fillColor=#e3c800;fontColor=#000000;strokeColor=#B09500;" vertex="1" parent="1">
          <mxGeometry x="278" y="245" width="11" height="12.27" as="geometry" />
        </mxCell>
        <mxCell id="i7MlMyAg6a_LaQY61Rji-124" value="&lt;div&gt;incoming&lt;/div&gt;&lt;div&gt;request&lt;/div&gt;" style="text;strokeColor=none;fillColor=none;html=1;fontSize=8;fontStyle=0;verticalAlign=middle;align=left;" vertex="1" parent="1">
          <mxGeometry x="122.77" y="232" width="38" height="19.73" as="geometry" />
        </mxCell>
        <mxCell id="i7MlMyAg6a_LaQY61Rji-126" value="serve" style="text;strokeColor=none;fillColor=none;html=1;fontSize=8;fontStyle=0;verticalAlign=middle;align=left;" vertex="1" parent="1">
          <mxGeometry x="291.53" y="239.76" width="38" height="19.73" as="geometry" />
        </mxCell>
        <mxCell id="i7MlMyAg6a_LaQY61Rji-128" value="serve" style="text;strokeColor=none;fillColor=none;html=1;fontSize=8;fontStyle=0;verticalAlign=middle;align=left;" vertex="1" parent="1">
          <mxGeometry x="319.60999999999996" y="298.27" width="38" height="19.73" as="geometry" />
        </mxCell>
        <mxCell id="i7MlMyAg6a_LaQY61Rji-129" value="pull" style="text;strokeColor=none;fillColor=none;html=1;fontSize=8;fontStyle=0;verticalAlign=middle;align=left;" vertex="1" parent="1">
          <mxGeometry x="207.37999999999994" y="240.26999999999998" width="38" height="19.73" as="geometry" />
        </mxCell>
        <mxCell id="i7MlMyAg6a_LaQY61Rji-130" value="parked" style="text;strokeColor=none;fillColor=none;html=1;fontSize=8;fontStyle=0;verticalAlign=middle;align=left;" vertex="1" parent="1">
          <mxGeometry x="216.75" y="304.2" width="38" height="6.32" as="geometry" />
        </mxCell>
        <mxCell id="i7MlMyAg6a_LaQY61Rji-131" value="add to cache" style="text;strokeColor=none;fillColor=none;html=1;fontSize=8;fontStyle=0;verticalAlign=middle;align=left;" vertex="1" parent="1">
          <mxGeometry x="246.58999999999997" y="212.26999999999998" width="38" height="19.73" as="geometry" />
        </mxCell>
        <mxCell id="i7MlMyAg6a_LaQY61Rji-132" value="" style="endArrow=blockThin;html=1;rounded=0;endFill=0;" edge="1" parent="1" source="i7MlMyAg6a_LaQY61Rji-131">
          <mxGeometry width="50" height="50" relative="1" as="geometry">
            <mxPoint x="273" y="230" as="sourcePoint" />
            <mxPoint x="273" y="275" as="targetPoint" />
          </mxGeometry>
        </mxCell>
      </root>
    </mxGraphModel>
  </diagram>
</mxfile>
